<?xml version="1.0" encoding="utf-8" standalone="no"?>
<!DOCTYPE svg PUBLIC "-//W3C//DTD SVG 1.1//EN"
  "http://www.w3.org/Graphics/SVG/1.1/DTD/svg11.dtd">
<svg xmlns:xlink="http://www.w3.org/1999/xlink" width="221.08pt" height="168.4025pt" viewBox="0 0 221.08 168.4025" xmlns="http://www.w3.org/2000/svg" version="1.1">
 <metadata>
  <rdf:RDF xmlns:dc="http://purl.org/dc/elements/1.1/" xmlns:cc="http://creativecommons.org/ns#" xmlns:rdf="http://www.w3.org/1999/02/22-rdf-syntax-ns#">
   <cc:Work>
    <dc:type rdf:resource="http://purl.org/dc/dcmitype/StillImage"/>
    <dc:date>2025-04-10T00:22:10.240560</dc:date>
    <dc:format>image/svg+xml</dc:format>
    <dc:creator>
     <cc:Agent>
      <dc:title>Matplotlib v3.10.0, https://matplotlib.org/</dc:title>
     </cc:Agent>
    </dc:creator>
   </cc:Work>
  </rdf:RDF>
 </metadata>
 <defs>
  <style type="text/css">*{stroke-linejoin: round; stroke-linecap: butt}</style>
 </defs>
 <g id="figure_1">
  <g id="patch_1">
   <path d="M 0 168.4025 
L 221.08 168.4025 
L 221.08 0 
L 0 0 
z
" style="fill: #ffffff"/>
  </g>
  <g id="axes_1">
   <g id="patch_2">
    <path d="M 33.34 142.2 
L 217.48 142.2 
L 217.48 3.6 
L 33.34 3.6 
z
" style="fill: #ffffff"/>
   </g>
   <g id="matplotlib.axis_1">
    <g id="xtick_1">
     <g id="line2d_1">
      <defs>
       <path id="m22d5de13a6" d="M 0 0 
L 0 -3 
" style="stroke: #000000; stroke-width: 0.5"/>
      </defs>
      <g>
       <use xlink:href="#m22d5de13a6" x="41.71" y="142.2" style="stroke: #000000; stroke-width: 0.5"/>
      </g>
     </g>
     <g id="line2d_2">
      <defs>
       <path id="mb5ac54b38e" d="M 0 0 
L 0 3 
" style="stroke: #000000; stroke-width: 0.5"/>
      </defs>
      <g>
       <use xlink:href="#mb5ac54b38e" x="41.71" y="3.6" style="stroke: #000000; stroke-width: 0.5"/>
      </g>
     </g>
     <g id="text_1">
      <!-- $\mathdefault{0}$ -->
      <g transform="translate(39.71 151.25125) scale(0.08 -0.08)">
       <defs>
        <path id="Cmr10-30" d="M 1600 -141 
Q 816 -141 533 504 
Q 250 1150 250 2041 
Q 250 2597 351 3087 
Q 453 3578 754 3920 
Q 1056 4263 1600 4263 
Q 2022 4263 2290 4056 
Q 2559 3850 2700 3523 
Q 2841 3197 2892 2823 
Q 2944 2450 2944 2041 
Q 2944 1491 2842 1011 
Q 2741 531 2444 195 
Q 2147 -141 1600 -141 
z
M 1600 25 
Q 1956 25 2131 390 
Q 2306 756 2347 1200 
Q 2388 1644 2388 2144 
Q 2388 2625 2347 3031 
Q 2306 3438 2132 3767 
Q 1959 4097 1600 4097 
Q 1238 4097 1063 3765 
Q 888 3434 847 3029 
Q 806 2625 806 2144 
Q 806 1788 823 1472 
Q 841 1156 916 820 
Q 991 484 1158 254 
Q 1325 25 1600 25 
z
" transform="scale(0.015625)"/>
       </defs>
       <use xlink:href="#Cmr10-30" transform="translate(0 0.390625)"/>
      </g>
     </g>
    </g>
    <g id="xtick_2">
     <g id="line2d_3">
      <g>
       <use xlink:href="#m22d5de13a6" x="88.21" y="142.2" style="stroke: #000000; stroke-width: 0.5"/>
      </g>
     </g>
     <g id="line2d_4">
      <g>
       <use xlink:href="#mb5ac54b38e" x="88.21" y="3.6" style="stroke: #000000; stroke-width: 0.5"/>
      </g>
     </g>
     <g id="text_2">
      <!-- $\mathdefault{100}$ -->
      <g transform="translate(82.21 151.25125) scale(0.08 -0.08)">
       <defs>
        <path id="Cmr10-31" d="M 594 0 
L 594 225 
Q 1394 225 1394 428 
L 1394 3788 
Q 1063 3628 556 3628 
L 556 3853 
Q 1341 3853 1741 4263 
L 1831 4263 
Q 1853 4263 1873 4245 
Q 1894 4228 1894 4206 
L 1894 428 
Q 1894 225 2694 225 
L 2694 0 
L 594 0 
z
" transform="scale(0.015625)"/>
       </defs>
       <use xlink:href="#Cmr10-31" transform="translate(0 0.390625)"/>
       <use xlink:href="#Cmr10-30" transform="translate(50 0.390625)"/>
       <use xlink:href="#Cmr10-30" transform="translate(100 0.390625)"/>
      </g>
     </g>
    </g>
    <g id="xtick_3">
     <g id="line2d_5">
      <g>
       <use xlink:href="#m22d5de13a6" x="134.71" y="142.2" style="stroke: #000000; stroke-width: 0.5"/>
      </g>
     </g>
     <g id="line2d_6">
      <g>
       <use xlink:href="#mb5ac54b38e" x="134.71" y="3.6" style="stroke: #000000; stroke-width: 0.5"/>
      </g>
     </g>
     <g id="text_3">
      <!-- $\mathdefault{200}$ -->
      <g transform="translate(128.71 151.25125) scale(0.08 -0.08)">
       <defs>
        <path id="Cmr10-32" d="M 319 0 
L 319 172 
Q 319 188 331 206 
L 1325 1306 
Q 1550 1550 1690 1715 
Q 1831 1881 1968 2097 
Q 2106 2313 2186 2536 
Q 2266 2759 2266 3009 
Q 2266 3272 2169 3511 
Q 2072 3750 1880 3894 
Q 1688 4038 1416 4038 
Q 1138 4038 916 3870 
Q 694 3703 603 3438 
Q 628 3444 672 3444 
Q 816 3444 917 3347 
Q 1019 3250 1019 3097 
Q 1019 2950 917 2848 
Q 816 2747 672 2747 
Q 522 2747 420 2851 
Q 319 2956 319 3097 
Q 319 3338 409 3548 
Q 500 3759 670 3923 
Q 841 4088 1055 4175 
Q 1269 4263 1509 4263 
Q 1875 4263 2190 4108 
Q 2506 3953 2690 3670 
Q 2875 3388 2875 3009 
Q 2875 2731 2753 2481 
Q 2631 2231 2440 2026 
Q 2250 1822 1953 1562 
Q 1656 1303 1563 1216 
L 838 519 
L 1453 519 
Q 1906 519 2211 526 
Q 2516 534 2534 550 
Q 2609 631 2688 1141 
L 2875 1141 
L 2694 0 
L 319 0 
z
" transform="scale(0.015625)"/>
       </defs>
       <use xlink:href="#Cmr10-32" transform="translate(0 0.390625)"/>
       <use xlink:href="#Cmr10-30" transform="translate(50 0.390625)"/>
       <use xlink:href="#Cmr10-30" transform="translate(100 0.390625)"/>
      </g>
     </g>
    </g>
    <g id="xtick_4">
     <g id="line2d_7">
      <g>
       <use xlink:href="#m22d5de13a6" x="181.21" y="142.2" style="stroke: #000000; stroke-width: 0.5"/>
      </g>
     </g>
     <g id="line2d_8">
      <g>
       <use xlink:href="#mb5ac54b38e" x="181.21" y="3.6" style="stroke: #000000; stroke-width: 0.5"/>
      </g>
     </g>
     <g id="text_4">
      <!-- $\mathdefault{300}$ -->
      <g transform="translate(175.21 151.25125) scale(0.08 -0.08)">
       <defs>
        <path id="Cmr10-33" d="M 609 494 
Q 759 275 1012 169 
Q 1266 63 1556 63 
Q 1928 63 2084 380 
Q 2241 697 2241 1100 
Q 2241 1281 2208 1462 
Q 2175 1644 2097 1800 
Q 2019 1956 1883 2050 
Q 1747 2144 1550 2144 
L 1125 2144 
Q 1069 2144 1069 2203 
L 1069 2259 
Q 1069 2309 1125 2309 
L 1478 2338 
Q 1703 2338 1851 2506 
Q 2000 2675 2069 2917 
Q 2138 3159 2138 3378 
Q 2138 3684 1994 3881 
Q 1850 4078 1556 4078 
Q 1313 4078 1091 3986 
Q 869 3894 738 3706 
Q 750 3709 759 3711 
Q 769 3713 781 3713 
Q 925 3713 1022 3613 
Q 1119 3513 1119 3372 
Q 1119 3234 1022 3134 
Q 925 3034 781 3034 
Q 641 3034 541 3134 
Q 441 3234 441 3372 
Q 441 3647 606 3850 
Q 772 4053 1033 4158 
Q 1294 4263 1556 4263 
Q 1750 4263 1965 4205 
Q 2181 4147 2356 4039 
Q 2531 3931 2642 3762 
Q 2753 3594 2753 3378 
Q 2753 3109 2633 2881 
Q 2513 2653 2303 2487 
Q 2094 2322 1844 2241 
Q 2122 2188 2372 2031 
Q 2622 1875 2773 1631 
Q 2925 1388 2925 1106 
Q 2925 753 2731 467 
Q 2538 181 2222 20 
Q 1906 -141 1556 -141 
Q 1256 -141 954 -26 
Q 653 88 461 316 
Q 269 544 269 863 
Q 269 1022 375 1128 
Q 481 1234 641 1234 
Q 744 1234 830 1186 
Q 916 1138 964 1050 
Q 1013 963 1013 863 
Q 1013 706 903 600 
Q 794 494 641 494 
L 609 494 
z
" transform="scale(0.015625)"/>
       </defs>
       <use xlink:href="#Cmr10-33" transform="translate(0 0.390625)"/>
       <use xlink:href="#Cmr10-30" transform="translate(50 0.390625)"/>
       <use xlink:href="#Cmr10-30" transform="translate(100 0.390625)"/>
      </g>
     </g>
    </g>
    <g id="xtick_5">
     <g id="line2d_9">
      <defs>
       <path id="mce417ef097" d="M 0 0 
L 0 -1.5 
" style="stroke: #000000; stroke-width: 0.5"/>
      </defs>
      <g>
       <use xlink:href="#mce417ef097" x="51.01" y="142.2" style="stroke: #000000; stroke-width: 0.5"/>
      </g>
     </g>
     <g id="line2d_10">
      <defs>
       <path id="med43666f75" d="M 0 0 
L 0 1.5 
" style="stroke: #000000; stroke-width: 0.5"/>
      </defs>
      <g>
       <use xlink:href="#med43666f75" x="51.01" y="3.6" style="stroke: #000000; stroke-width: 0.5"/>
      </g>
     </g>
    </g>
    <g id="xtick_6">
     <g id="line2d_11">
      <g>
       <use xlink:href="#mce417ef097" x="60.31" y="142.2" style="stroke: #000000; stroke-width: 0.5"/>
      </g>
     </g>
     <g id="line2d_12">
      <g>
       <use xlink:href="#med43666f75" x="60.31" y="3.6" style="stroke: #000000; stroke-width: 0.5"/>
      </g>
     </g>
    </g>
    <g id="xtick_7">
     <g id="line2d_13">
      <g>
       <use xlink:href="#mce417ef097" x="69.61" y="142.2" style="stroke: #000000; stroke-width: 0.5"/>
      </g>
     </g>
     <g id="line2d_14">
      <g>
       <use xlink:href="#med43666f75" x="69.61" y="3.6" style="stroke: #000000; stroke-width: 0.5"/>
      </g>
     </g>
    </g>
    <g id="xtick_8">
     <g id="line2d_15">
      <g>
       <use xlink:href="#mce417ef097" x="78.91" y="142.2" style="stroke: #000000; stroke-width: 0.5"/>
      </g>
     </g>
     <g id="line2d_16">
      <g>
       <use xlink:href="#med43666f75" x="78.91" y="3.6" style="stroke: #000000; stroke-width: 0.5"/>
      </g>
     </g>
    </g>
    <g id="xtick_9">
     <g id="line2d_17">
      <g>
       <use xlink:href="#mce417ef097" x="97.51" y="142.2" style="stroke: #000000; stroke-width: 0.5"/>
      </g>
     </g>
     <g id="line2d_18">
      <g>
       <use xlink:href="#med43666f75" x="97.51" y="3.6" style="stroke: #000000; stroke-width: 0.5"/>
      </g>
     </g>
    </g>
    <g id="xtick_10">
     <g id="line2d_19">
      <g>
       <use xlink:href="#mce417ef097" x="106.81" y="142.2" style="stroke: #000000; stroke-width: 0.5"/>
      </g>
     </g>
     <g id="line2d_20">
      <g>
       <use xlink:href="#med43666f75" x="106.81" y="3.6" style="stroke: #000000; stroke-width: 0.5"/>
      </g>
     </g>
    </g>
    <g id="xtick_11">
     <g id="line2d_21">
      <g>
       <use xlink:href="#mce417ef097" x="116.11" y="142.2" style="stroke: #000000; stroke-width: 0.5"/>
      </g>
     </g>
     <g id="line2d_22">
      <g>
       <use xlink:href="#med43666f75" x="116.11" y="3.6" style="stroke: #000000; stroke-width: 0.5"/>
      </g>
     </g>
    </g>
    <g id="xtick_12">
     <g id="line2d_23">
      <g>
       <use xlink:href="#mce417ef097" x="125.41" y="142.2" style="stroke: #000000; stroke-width: 0.5"/>
      </g>
     </g>
     <g id="line2d_24">
      <g>
       <use xlink:href="#med43666f75" x="125.41" y="3.6" style="stroke: #000000; stroke-width: 0.5"/>
      </g>
     </g>
    </g>
    <g id="xtick_13">
     <g id="line2d_25">
      <g>
       <use xlink:href="#mce417ef097" x="144.01" y="142.2" style="stroke: #000000; stroke-width: 0.5"/>
      </g>
     </g>
     <g id="line2d_26">
      <g>
       <use xlink:href="#med43666f75" x="144.01" y="3.6" style="stroke: #000000; stroke-width: 0.5"/>
      </g>
     </g>
    </g>
    <g id="xtick_14">
     <g id="line2d_27">
      <g>
       <use xlink:href="#mce417ef097" x="153.31" y="142.2" style="stroke: #000000; stroke-width: 0.5"/>
      </g>
     </g>
     <g id="line2d_28">
      <g>
       <use xlink:href="#med43666f75" x="153.31" y="3.6" style="stroke: #000000; stroke-width: 0.5"/>
      </g>
     </g>
    </g>
    <g id="xtick_15">
     <g id="line2d_29">
      <g>
       <use xlink:href="#mce417ef097" x="162.61" y="142.2" style="stroke: #000000; stroke-width: 0.5"/>
      </g>
     </g>
     <g id="line2d_30">
      <g>
       <use xlink:href="#med43666f75" x="162.61" y="3.6" style="stroke: #000000; stroke-width: 0.5"/>
      </g>
     </g>
    </g>
    <g id="xtick_16">
     <g id="line2d_31">
      <g>
       <use xlink:href="#mce417ef097" x="171.91" y="142.2" style="stroke: #000000; stroke-width: 0.5"/>
      </g>
     </g>
     <g id="line2d_32">
      <g>
       <use xlink:href="#med43666f75" x="171.91" y="3.6" style="stroke: #000000; stroke-width: 0.5"/>
      </g>
     </g>
    </g>
    <g id="xtick_17">
     <g id="line2d_33">
      <g>
       <use xlink:href="#mce417ef097" x="190.51" y="142.2" style="stroke: #000000; stroke-width: 0.5"/>
      </g>
     </g>
     <g id="line2d_34">
      <g>
       <use xlink:href="#med43666f75" x="190.51" y="3.6" style="stroke: #000000; stroke-width: 0.5"/>
      </g>
     </g>
    </g>
    <g id="xtick_18">
     <g id="line2d_35">
      <g>
       <use xlink:href="#mce417ef097" x="199.81" y="142.2" style="stroke: #000000; stroke-width: 0.5"/>
      </g>
     </g>
     <g id="line2d_36">
      <g>
       <use xlink:href="#med43666f75" x="199.81" y="3.6" style="stroke: #000000; stroke-width: 0.5"/>
      </g>
     </g>
    </g>
    <g id="xtick_19">
     <g id="line2d_37">
      <g>
       <use xlink:href="#mce417ef097" x="209.11" y="142.2" style="stroke: #000000; stroke-width: 0.5"/>
      </g>
     </g>
     <g id="line2d_38">
      <g>
       <use xlink:href="#med43666f75" x="209.11" y="3.6" style="stroke: #000000; stroke-width: 0.5"/>
      </g>
     </g>
    </g>
    <g id="text_5">
     <!-- Service Time (s) -->
     <g transform="translate(96.634375 162.8025) scale(0.08 -0.08)">
      <defs>
       <path id="Cmr10-53" d="M 359 -91 
L 359 1403 
Q 359 1453 416 1453 
L 494 1453 
Q 513 1453 528 1437 
Q 544 1422 544 1403 
Q 544 775 933 429 
Q 1322 84 1953 84 
Q 2175 84 2362 212 
Q 2550 341 2654 548 
Q 2759 756 2759 978 
Q 2759 1172 2681 1355 
Q 2603 1538 2456 1672 
Q 2309 1806 2125 1850 
L 1294 2053 
Q 881 2163 620 2502 
Q 359 2841 359 3263 
Q 359 3594 528 3884 
Q 697 4175 983 4344 
Q 1269 4513 1600 4513 
Q 2241 4513 2619 4078 
L 2881 4494 
Q 2900 4513 2925 4513 
L 2969 4513 
Q 2988 4513 3005 4498 
Q 3022 4484 3022 4459 
L 3022 2975 
Q 3022 2919 2969 2919 
L 2894 2919 
Q 2834 2919 2834 2975 
Q 2834 3138 2779 3331 
Q 2725 3525 2628 3703 
Q 2531 3881 2419 3994 
Q 2109 4306 1600 4306 
Q 1381 4306 1197 4195 
Q 1013 4084 903 3893 
Q 794 3703 794 3494 
Q 794 3219 964 2995 
Q 1134 2772 1409 2700 
L 2241 2497 
Q 2447 2447 2630 2317 
Q 2813 2188 2934 2016 
Q 3056 1844 3125 1633 
Q 3194 1422 3194 1197 
Q 3194 850 3034 542 
Q 2875 234 2586 46 
Q 2297 -141 1953 -141 
Q 1741 -141 1519 -94 
Q 1297 -47 1109 50 
Q 922 147 769 300 
L 500 -122 
Q 481 -141 453 -141 
L 416 -141 
Q 359 -141 359 -91 
z
" transform="scale(0.015625)"/>
       <path id="Cmr10-65" d="M 1594 -72 
Q 1203 -72 876 133 
Q 550 338 364 680 
Q 178 1022 178 1403 
Q 178 1778 348 2115 
Q 519 2453 823 2661 
Q 1128 2869 1503 2869 
Q 1797 2869 2014 2770 
Q 2231 2672 2372 2497 
Q 2513 2322 2584 2084 
Q 2656 1847 2656 1563 
Q 2656 1478 2591 1478 
L 738 1478 
L 738 1409 
Q 738 878 952 497 
Q 1166 116 1650 116 
Q 1847 116 2014 203 
Q 2181 291 2304 447 
Q 2428 603 2472 781 
Q 2478 803 2495 820 
Q 2513 838 2534 838 
L 2591 838 
Q 2656 838 2656 756 
Q 2566 394 2266 161 
Q 1966 -72 1594 -72 
z
M 744 1638 
L 2203 1638 
Q 2203 1878 2136 2125 
Q 2069 2372 1912 2536 
Q 1756 2700 1503 2700 
Q 1141 2700 942 2361 
Q 744 2022 744 1638 
z
" transform="scale(0.015625)"/>
       <path id="Cmr10-72" d="M 166 0 
L 166 225 
Q 384 225 525 259 
Q 666 294 666 428 
L 666 2175 
Q 666 2347 614 2423 
Q 563 2500 466 2517 
Q 369 2534 166 2534 
L 166 2759 
L 1081 2828 
L 1081 2203 
Q 1184 2481 1375 2654 
Q 1566 2828 1838 2828 
Q 2028 2828 2178 2715 
Q 2328 2603 2328 2419 
Q 2328 2303 2245 2217 
Q 2163 2131 2041 2131 
Q 1922 2131 1837 2215 
Q 1753 2300 1753 2419 
Q 1753 2591 1875 2663 
L 1838 2663 
Q 1578 2663 1414 2475 
Q 1250 2288 1181 2009 
Q 1113 1731 1113 1478 
L 1113 428 
Q 1113 225 1734 225 
L 1734 0 
L 166 0 
z
" transform="scale(0.015625)"/>
       <path id="Cmr10-76" d="M 1563 0 
L 628 2350 
Q 569 2469 445 2501 
Q 322 2534 122 2534 
L 122 2759 
L 1466 2759 
L 1466 2534 
Q 1106 2534 1106 2381 
Q 1106 2356 1113 2344 
L 1831 538 
L 2478 2169 
Q 2497 2219 2497 2272 
Q 2497 2394 2405 2464 
Q 2313 2534 2188 2534 
L 2188 2759 
L 3250 2759 
L 3250 2534 
Q 3053 2534 2904 2443 
Q 2756 2353 2675 2175 
L 1813 0 
Q 1788 -72 1709 -72 
L 1663 -72 
Q 1584 -72 1563 0 
z
" transform="scale(0.015625)"/>
       <path id="Cmr10-69" d="M 197 0 
L 197 225 
Q 416 225 556 259 
Q 697 294 697 428 
L 697 2175 
Q 697 2422 601 2478 
Q 506 2534 225 2534 
L 225 2759 
L 1147 2828 
L 1147 428 
Q 1147 294 1269 259 
Q 1391 225 1594 225 
L 1594 0 
L 197 0 
z
M 469 3928 
Q 469 4069 575 4175 
Q 681 4281 819 4281 
Q 909 4281 993 4234 
Q 1078 4188 1125 4103 
Q 1172 4019 1172 3928 
Q 1172 3791 1065 3684 
Q 959 3578 819 3578 
Q 681 3578 575 3684 
Q 469 3791 469 3928 
z
" transform="scale(0.015625)"/>
       <path id="Cmr10-63" d="M 1594 -72 
Q 1206 -72 890 129 
Q 575 331 394 667 
Q 213 1003 213 1381 
Q 213 1759 392 2106 
Q 572 2453 889 2661 
Q 1206 2869 1594 2869 
Q 1969 2869 2276 2722 
Q 2584 2575 2584 2241 
Q 2584 2116 2495 2023 
Q 2406 1931 2278 1931 
Q 2150 1931 2061 2023 
Q 1972 2116 1972 2241 
Q 1972 2353 2044 2436 
Q 2116 2519 2222 2541 
Q 2000 2681 1600 2681 
Q 1294 2681 1106 2478 
Q 919 2275 844 1975 
Q 769 1675 769 1381 
Q 769 1072 861 783 
Q 953 494 1158 305 
Q 1363 116 1672 116 
Q 1975 116 2187 302 
Q 2400 488 2478 788 
Q 2478 825 2528 825 
L 2606 825 
Q 2625 825 2640 808 
Q 2656 791 2656 769 
L 2656 750 
Q 2559 372 2271 150 
Q 1984 -72 1594 -72 
z
" transform="scale(0.015625)"/>
       <path id="Cmr10-20" transform="scale(0.015625)"/>
       <path id="Cmr10-54" d="M 1081 0 
L 1081 225 
Q 1403 225 1706 261 
Q 2009 297 2009 428 
L 2009 3944 
Q 2009 4081 1932 4114 
Q 1856 4147 1684 4147 
L 1416 4147 
Q 888 4147 666 3916 
Q 550 3800 500 3545 
Q 450 3291 416 2906 
L 231 2906 
L 353 4372 
L 4263 4372 
L 4384 2906 
L 4197 2906 
Q 4159 3319 4114 3561 
Q 4069 3803 3950 3916 
Q 3725 4147 3200 4147 
L 2931 4147 
Q 2816 4147 2752 4137 
Q 2688 4128 2647 4083 
Q 2606 4038 2606 3944 
L 2606 428 
Q 2606 297 2909 261 
Q 3213 225 3531 225 
L 3531 0 
L 1081 0 
z
" transform="scale(0.015625)"/>
       <path id="Cmr10-6d" d="M 191 0 
L 191 225 
Q 409 225 550 259 
Q 691 294 691 428 
L 691 2175 
Q 691 2347 639 2423 
Q 588 2500 491 2517 
Q 394 2534 191 2534 
L 191 2759 
L 1119 2828 
L 1119 2203 
Q 1247 2478 1498 2653 
Q 1750 2828 2047 2828 
Q 2784 2828 2913 2228 
Q 3041 2497 3287 2662 
Q 3534 2828 3828 2828 
Q 4119 2828 4317 2734 
Q 4516 2641 4616 2448 
Q 4716 2256 4716 1966 
L 4716 428 
Q 4716 294 4858 259 
Q 5000 225 5216 225 
L 5216 0 
L 3750 0 
L 3750 225 
Q 3969 225 4109 259 
Q 4250 294 4250 428 
L 4250 1947 
Q 4250 2269 4159 2466 
Q 4069 2663 3788 2663 
Q 3419 2663 3178 2366 
Q 2938 2069 2938 1691 
L 2938 428 
Q 2938 294 3078 259 
Q 3219 225 3438 225 
L 3438 0 
L 1972 0 
L 1972 225 
Q 2191 225 2331 259 
Q 2472 294 2472 428 
L 2472 1947 
Q 2472 2259 2381 2461 
Q 2291 2663 2009 2663 
Q 1638 2663 1398 2366 
Q 1159 2069 1159 1691 
L 1159 428 
Q 1159 294 1300 259 
Q 1441 225 1656 225 
L 1656 0 
L 191 0 
z
" transform="scale(0.015625)"/>
       <path id="Cmr10-28" d="M 1984 -1588 
Q 1628 -1306 1370 -942 
Q 1113 -578 948 -165 
Q 784 247 703 697 
Q 622 1147 622 1600 
Q 622 2059 703 2509 
Q 784 2959 951 3375 
Q 1119 3791 1378 4153 
Q 1638 4516 1984 4788 
Q 1984 4800 2016 4800 
L 2075 4800 
Q 2094 4800 2109 4783 
Q 2125 4766 2125 4744 
Q 2125 4716 2113 4703 
Q 1800 4397 1592 4047 
Q 1384 3697 1257 3301 
Q 1131 2906 1075 2482 
Q 1019 2059 1019 1600 
Q 1019 -434 2106 -1491 
Q 2125 -1509 2125 -1544 
Q 2125 -1559 2108 -1579 
Q 2091 -1600 2075 -1600 
L 2016 -1600 
Q 1984 -1600 1984 -1588 
z
" transform="scale(0.015625)"/>
       <path id="Cmr10-73" d="M 213 -19 
L 213 1025 
Q 213 1075 269 1075 
L 347 1075 
Q 384 1075 397 1025 
Q 575 97 1259 97 
Q 1563 97 1767 234 
Q 1972 372 1972 659 
Q 1972 866 1812 1011 
Q 1653 1156 1434 1209 
L 1006 1294 
Q 791 1341 614 1437 
Q 438 1534 325 1695 
Q 213 1856 213 2069 
Q 213 2350 361 2529 
Q 509 2709 746 2789 
Q 984 2869 1259 2869 
Q 1588 2869 1831 2694 
L 2016 2853 
Q 2016 2869 2047 2869 
L 2094 2869 
Q 2113 2869 2128 2851 
Q 2144 2834 2144 2816 
L 2144 1978 
Q 2144 1919 2094 1919 
L 2016 1919 
Q 1959 1919 1959 1978 
Q 1959 2313 1773 2516 
Q 1588 2719 1253 2719 
Q 966 2719 755 2612 
Q 544 2506 544 2247 
Q 544 2069 695 1955 
Q 847 1841 1050 1791 
L 1484 1709 
Q 1703 1659 1892 1540 
Q 2081 1422 2192 1240 
Q 2303 1059 2303 831 
Q 2303 600 2223 429 
Q 2144 259 2001 146 
Q 1859 34 1665 -19 
Q 1472 -72 1259 -72 
Q 859 -72 575 197 
L 341 -56 
Q 341 -72 306 -72 
L 269 -72 
Q 213 -72 213 -19 
z
" transform="scale(0.015625)"/>
       <path id="Cmr10-29" d="M 416 -1600 
Q 359 -1600 359 -1544 
Q 359 -1516 372 -1503 
Q 1466 -434 1466 1600 
Q 1466 3634 384 4691 
Q 359 4706 359 4744 
Q 359 4766 376 4783 
Q 394 4800 416 4800 
L 475 4800 
Q 494 4800 506 4788 
Q 966 4425 1272 3906 
Q 1578 3388 1720 2800 
Q 1863 2213 1863 1600 
Q 1863 1147 1786 708 
Q 1709 269 1542 -157 
Q 1375 -584 1119 -945 
Q 863 -1306 506 -1588 
Q 494 -1600 475 -1600 
L 416 -1600 
z
" transform="scale(0.015625)"/>
      </defs>
      <use xlink:href="#Cmr10-53"/>
      <use xlink:href="#Cmr10-65" transform="translate(55.517578 0)"/>
      <use xlink:href="#Cmr10-72" transform="translate(99.902344 0)"/>
      <use xlink:href="#Cmr10-76" transform="translate(139.013672 0)"/>
      <use xlink:href="#Cmr10-69" transform="translate(191.699219 0)"/>
      <use xlink:href="#Cmr10-63" transform="translate(219.384766 0)"/>
      <use xlink:href="#Cmr10-65" transform="translate(263.769531 0)"/>
      <use xlink:href="#Cmr10-20" transform="translate(308.154297 0)"/>
      <use xlink:href="#Cmr10-54" transform="translate(341.455078 0)"/>
      <use xlink:href="#Cmr10-69" transform="translate(413.671875 0)"/>
      <use xlink:href="#Cmr10-6d" transform="translate(441.357422 0)"/>
      <use xlink:href="#Cmr10-65" transform="translate(524.658203 0)"/>
      <use xlink:href="#Cmr10-20" transform="translate(569.042969 0)"/>
      <use xlink:href="#Cmr10-28" transform="translate(602.34375 0)"/>
      <use xlink:href="#Cmr10-73" transform="translate(641.162109 0)"/>
      <use xlink:href="#Cmr10-29" transform="translate(680.566406 0)"/>
     </g>
    </g>
   </g>
   <g id="matplotlib.axis_2">
    <g id="ytick_1">
     <g id="line2d_39">
      <defs>
       <path id="me4be5a6302" d="M 0 0 
L 3 0 
" style="stroke: #000000; stroke-width: 0.5"/>
      </defs>
      <g>
       <use xlink:href="#me4be5a6302" x="33.34" y="137.179033" style="stroke: #000000; stroke-width: 0.5"/>
      </g>
     </g>
     <g id="line2d_40">
      <defs>
       <path id="mb401dc3324" d="M 0 0 
L -3 0 
" style="stroke: #000000; stroke-width: 0.5"/>
      </defs>
      <g>
       <use xlink:href="#mb401dc3324" x="217.48" y="137.179033" style="stroke: #000000; stroke-width: 0.5"/>
      </g>
     </g>
     <g id="text_6">
      <!-- $\mathdefault{9.0}$ -->
      <g transform="translate(19.6 139.954658) scale(0.08 -0.08)">
       <defs>
        <path id="Cmr10-39" d="M 722 269 
Q 897 63 1331 63 
Q 1575 63 1786 228 
Q 1997 394 2113 634 
Q 2247 906 2284 1214 
Q 2322 1522 2322 1978 
Q 2213 1719 2008 1553 
Q 1803 1388 1538 1388 
Q 1166 1388 873 1589 
Q 581 1791 425 2120 
Q 269 2450 269 2822 
Q 269 3206 444 3539 
Q 619 3872 928 4067 
Q 1238 4263 1631 4263 
Q 2019 4263 2280 4052 
Q 2541 3841 2678 3508 
Q 2816 3175 2870 2803 
Q 2925 2431 2925 2069 
Q 2925 1575 2744 1061 
Q 2563 547 2202 203 
Q 1841 -141 1331 -141 
Q 953 -141 690 37 
Q 428 216 428 575 
Q 428 706 517 795 
Q 606 884 738 884 
Q 866 884 955 795 
Q 1044 706 1044 575 
Q 1044 450 953 359 
Q 863 269 738 269 
L 722 269 
z
M 1563 1556 
Q 1825 1556 1992 1732 
Q 2159 1909 2234 2171 
Q 2309 2434 2309 2694 
L 2309 2816 
L 2309 2841 
Q 2309 3322 2168 3700 
Q 2028 4078 1631 4078 
Q 1378 4078 1220 3967 
Q 1063 3856 988 3672 
Q 913 3488 892 3278 
Q 872 3069 872 2822 
Q 872 2459 906 2203 
Q 941 1947 1094 1751 
Q 1247 1556 1563 1556 
z
" transform="scale(0.015625)"/>
        <path id="Cmr10-2e" d="M 538 353 
Q 538 497 644 600 
Q 750 703 891 703 
Q 978 703 1062 656 
Q 1147 609 1194 525 
Q 1241 441 1241 353 
Q 1241 213 1137 106 
Q 1034 0 891 0 
Q 750 0 644 106 
Q 538 213 538 353 
z
" transform="scale(0.015625)"/>
       </defs>
       <use xlink:href="#Cmr10-39" transform="translate(0 0.390625)"/>
       <use xlink:href="#Cmr10-2e" transform="translate(50 0.390625)"/>
       <use xlink:href="#Cmr10-30" transform="translate(77.685547 0.390625)"/>
      </g>
     </g>
    </g>
    <g id="ytick_2">
     <g id="line2d_41">
      <g>
       <use xlink:href="#me4be5a6302" x="33.34" y="117.274995" style="stroke: #000000; stroke-width: 0.5"/>
      </g>
     </g>
     <g id="line2d_42">
      <g>
       <use xlink:href="#mb401dc3324" x="217.48" y="117.274995" style="stroke: #000000; stroke-width: 0.5"/>
      </g>
     </g>
     <g id="text_7">
      <!-- $\mathdefault{9.5}$ -->
      <g transform="translate(19.6 120.05062) scale(0.08 -0.08)">
       <defs>
        <path id="Cmr10-35" d="M 556 728 
Q 622 541 758 387 
Q 894 234 1080 148 
Q 1266 63 1466 63 
Q 1928 63 2103 422 
Q 2278 781 2278 1294 
Q 2278 1516 2270 1667 
Q 2263 1819 2228 1959 
Q 2169 2184 2020 2353 
Q 1872 2522 1656 2522 
Q 1441 2522 1286 2456 
Q 1131 2391 1034 2303 
Q 938 2216 863 2119 
Q 788 2022 769 2016 
L 697 2016 
Q 681 2016 657 2036 
Q 634 2056 634 2075 
L 634 4213 
Q 634 4228 654 4245 
Q 675 4263 697 4263 
L 716 4263 
Q 1147 4056 1631 4056 
Q 2106 4056 2547 4263 
L 2566 4263 
Q 2588 4263 2606 4247 
Q 2625 4231 2625 4213 
L 2625 4153 
Q 2625 4122 2613 4122 
Q 2394 3831 2064 3668 
Q 1734 3506 1381 3506 
Q 1125 3506 856 3578 
L 856 2369 
Q 1069 2541 1236 2614 
Q 1403 2688 1663 2688 
Q 2016 2688 2295 2484 
Q 2575 2281 2725 1954 
Q 2875 1628 2875 1288 
Q 2875 903 2686 575 
Q 2497 247 2172 53 
Q 1847 -141 1466 -141 
Q 1150 -141 886 21 
Q 622 184 470 459 
Q 319 734 319 1044 
Q 319 1188 412 1278 
Q 506 1369 647 1369 
Q 788 1369 883 1276 
Q 978 1184 978 1044 
Q 978 906 883 811 
Q 788 716 647 716 
Q 625 716 597 720 
Q 569 725 556 728 
z
" transform="scale(0.015625)"/>
       </defs>
       <use xlink:href="#Cmr10-39" transform="translate(0 0.390625)"/>
       <use xlink:href="#Cmr10-2e" transform="translate(50 0.390625)"/>
       <use xlink:href="#Cmr10-35" transform="translate(77.685547 0.390625)"/>
      </g>
     </g>
    </g>
    <g id="ytick_3">
     <g id="line2d_43">
      <g>
       <use xlink:href="#me4be5a6302" x="33.34" y="97.370957" style="stroke: #000000; stroke-width: 0.5"/>
      </g>
     </g>
     <g id="line2d_44">
      <g>
       <use xlink:href="#mb401dc3324" x="217.48" y="97.370957" style="stroke: #000000; stroke-width: 0.5"/>
      </g>
     </g>
     <g id="text_8">
      <!-- $\mathdefault{10.0}$ -->
      <g transform="translate(15.6 100.146582) scale(0.08 -0.08)">
       <use xlink:href="#Cmr10-31" transform="translate(0 0.390625)"/>
       <use xlink:href="#Cmr10-30" transform="translate(50 0.390625)"/>
       <use xlink:href="#Cmr10-2e" transform="translate(100 0.390625)"/>
       <use xlink:href="#Cmr10-30" transform="translate(127.685547 0.390625)"/>
      </g>
     </g>
    </g>
    <g id="ytick_4">
     <g id="line2d_45">
      <g>
       <use xlink:href="#me4be5a6302" x="33.34" y="77.466919" style="stroke: #000000; stroke-width: 0.5"/>
      </g>
     </g>
     <g id="line2d_46">
      <g>
       <use xlink:href="#mb401dc3324" x="217.48" y="77.466919" style="stroke: #000000; stroke-width: 0.5"/>
      </g>
     </g>
     <g id="text_9">
      <!-- $\mathdefault{10.5}$ -->
      <g transform="translate(15.6 80.242544) scale(0.08 -0.08)">
       <use xlink:href="#Cmr10-31" transform="translate(0 0.390625)"/>
       <use xlink:href="#Cmr10-30" transform="translate(50 0.390625)"/>
       <use xlink:href="#Cmr10-2e" transform="translate(100 0.390625)"/>
       <use xlink:href="#Cmr10-35" transform="translate(127.685547 0.390625)"/>
      </g>
     </g>
    </g>
    <g id="ytick_5">
     <g id="line2d_47">
      <g>
       <use xlink:href="#me4be5a6302" x="33.34" y="57.562881" style="stroke: #000000; stroke-width: 0.5"/>
      </g>
     </g>
     <g id="line2d_48">
      <g>
       <use xlink:href="#mb401dc3324" x="217.48" y="57.562881" style="stroke: #000000; stroke-width: 0.5"/>
      </g>
     </g>
     <g id="text_10">
      <!-- $\mathdefault{11.0}$ -->
      <g transform="translate(15.6 60.338506) scale(0.08 -0.08)">
       <use xlink:href="#Cmr10-31" transform="translate(0 0.390625)"/>
       <use xlink:href="#Cmr10-31" transform="translate(50 0.390625)"/>
       <use xlink:href="#Cmr10-2e" transform="translate(100 0.390625)"/>
       <use xlink:href="#Cmr10-30" transform="translate(127.685547 0.390625)"/>
      </g>
     </g>
    </g>
    <g id="ytick_6">
     <g id="line2d_49">
      <g>
       <use xlink:href="#me4be5a6302" x="33.34" y="37.658843" style="stroke: #000000; stroke-width: 0.5"/>
      </g>
     </g>
     <g id="line2d_50">
      <g>
       <use xlink:href="#mb401dc3324" x="217.48" y="37.658843" style="stroke: #000000; stroke-width: 0.5"/>
      </g>
     </g>
     <g id="text_11">
      <!-- $\mathdefault{11.5}$ -->
      <g transform="translate(15.6 40.434468) scale(0.08 -0.08)">
       <use xlink:href="#Cmr10-31" transform="translate(0 0.390625)"/>
       <use xlink:href="#Cmr10-31" transform="translate(50 0.390625)"/>
       <use xlink:href="#Cmr10-2e" transform="translate(100 0.390625)"/>
       <use xlink:href="#Cmr10-35" transform="translate(127.685547 0.390625)"/>
      </g>
     </g>
    </g>
    <g id="ytick_7">
     <g id="line2d_51">
      <g>
       <use xlink:href="#me4be5a6302" x="33.34" y="17.754805" style="stroke: #000000; stroke-width: 0.5"/>
      </g>
     </g>
     <g id="line2d_52">
      <g>
       <use xlink:href="#mb401dc3324" x="217.48" y="17.754805" style="stroke: #000000; stroke-width: 0.5"/>
      </g>
     </g>
     <g id="text_12">
      <!-- $\mathdefault{12.0}$ -->
      <g transform="translate(15.6 20.53043) scale(0.08 -0.08)">
       <use xlink:href="#Cmr10-31" transform="translate(0 0.390625)"/>
       <use xlink:href="#Cmr10-32" transform="translate(50 0.390625)"/>
       <use xlink:href="#Cmr10-2e" transform="translate(100 0.390625)"/>
       <use xlink:href="#Cmr10-30" transform="translate(127.685547 0.390625)"/>
      </g>
     </g>
    </g>
    <g id="ytick_8">
     <g id="line2d_53">
      <defs>
       <path id="mabd40842a3" d="M 0 0 
L 1.5 0 
" style="stroke: #000000; stroke-width: 0.5"/>
      </defs>
      <g>
       <use xlink:href="#mabd40842a3" x="33.34" y="141.159841" style="stroke: #000000; stroke-width: 0.5"/>
      </g>
     </g>
     <g id="line2d_54">
      <defs>
       <path id="m03af762765" d="M 0 0 
L -1.5 0 
" style="stroke: #000000; stroke-width: 0.5"/>
      </defs>
      <g>
       <use xlink:href="#m03af762765" x="217.48" y="141.159841" style="stroke: #000000; stroke-width: 0.5"/>
      </g>
     </g>
    </g>
    <g id="ytick_9">
     <g id="line2d_55">
      <g>
       <use xlink:href="#mabd40842a3" x="33.34" y="133.198226" style="stroke: #000000; stroke-width: 0.5"/>
      </g>
     </g>
     <g id="line2d_56">
      <g>
       <use xlink:href="#m03af762765" x="217.48" y="133.198226" style="stroke: #000000; stroke-width: 0.5"/>
      </g>
     </g>
    </g>
    <g id="ytick_10">
     <g id="line2d_57">
      <g>
       <use xlink:href="#mabd40842a3" x="33.34" y="129.217418" style="stroke: #000000; stroke-width: 0.5"/>
      </g>
     </g>
     <g id="line2d_58">
      <g>
       <use xlink:href="#m03af762765" x="217.48" y="129.217418" style="stroke: #000000; stroke-width: 0.5"/>
      </g>
     </g>
    </g>
    <g id="ytick_11">
     <g id="line2d_59">
      <g>
       <use xlink:href="#mabd40842a3" x="33.34" y="125.236611" style="stroke: #000000; stroke-width: 0.5"/>
      </g>
     </g>
     <g id="line2d_60">
      <g>
       <use xlink:href="#m03af762765" x="217.48" y="125.236611" style="stroke: #000000; stroke-width: 0.5"/>
      </g>
     </g>
    </g>
    <g id="ytick_12">
     <g id="line2d_61">
      <g>
       <use xlink:href="#mabd40842a3" x="33.34" y="121.255803" style="stroke: #000000; stroke-width: 0.5"/>
      </g>
     </g>
     <g id="line2d_62">
      <g>
       <use xlink:href="#m03af762765" x="217.48" y="121.255803" style="stroke: #000000; stroke-width: 0.5"/>
      </g>
     </g>
    </g>
    <g id="ytick_13">
     <g id="line2d_63">
      <g>
       <use xlink:href="#mabd40842a3" x="33.34" y="113.294188" style="stroke: #000000; stroke-width: 0.5"/>
      </g>
     </g>
     <g id="line2d_64">
      <g>
       <use xlink:href="#m03af762765" x="217.48" y="113.294188" style="stroke: #000000; stroke-width: 0.5"/>
      </g>
     </g>
    </g>
    <g id="ytick_14">
     <g id="line2d_65">
      <g>
       <use xlink:href="#mabd40842a3" x="33.34" y="109.31338" style="stroke: #000000; stroke-width: 0.5"/>
      </g>
     </g>
     <g id="line2d_66">
      <g>
       <use xlink:href="#m03af762765" x="217.48" y="109.31338" style="stroke: #000000; stroke-width: 0.5"/>
      </g>
     </g>
    </g>
    <g id="ytick_15">
     <g id="line2d_67">
      <g>
       <use xlink:href="#mabd40842a3" x="33.34" y="105.332572" style="stroke: #000000; stroke-width: 0.5"/>
      </g>
     </g>
     <g id="line2d_68">
      <g>
       <use xlink:href="#m03af762765" x="217.48" y="105.332572" style="stroke: #000000; stroke-width: 0.5"/>
      </g>
     </g>
    </g>
    <g id="ytick_16">
     <g id="line2d_69">
      <g>
       <use xlink:href="#mabd40842a3" x="33.34" y="101.351765" style="stroke: #000000; stroke-width: 0.5"/>
      </g>
     </g>
     <g id="line2d_70">
      <g>
       <use xlink:href="#m03af762765" x="217.48" y="101.351765" style="stroke: #000000; stroke-width: 0.5"/>
      </g>
     </g>
    </g>
    <g id="ytick_17">
     <g id="line2d_71">
      <g>
       <use xlink:href="#mabd40842a3" x="33.34" y="93.39015" style="stroke: #000000; stroke-width: 0.5"/>
      </g>
     </g>
     <g id="line2d_72">
      <g>
       <use xlink:href="#m03af762765" x="217.48" y="93.39015" style="stroke: #000000; stroke-width: 0.5"/>
      </g>
     </g>
    </g>
    <g id="ytick_18">
     <g id="line2d_73">
      <g>
       <use xlink:href="#mabd40842a3" x="33.34" y="89.409342" style="stroke: #000000; stroke-width: 0.5"/>
      </g>
     </g>
     <g id="line2d_74">
      <g>
       <use xlink:href="#m03af762765" x="217.48" y="89.409342" style="stroke: #000000; stroke-width: 0.5"/>
      </g>
     </g>
    </g>
    <g id="ytick_19">
     <g id="line2d_75">
      <g>
       <use xlink:href="#mabd40842a3" x="33.34" y="85.428534" style="stroke: #000000; stroke-width: 0.5"/>
      </g>
     </g>
     <g id="line2d_76">
      <g>
       <use xlink:href="#m03af762765" x="217.48" y="85.428534" style="stroke: #000000; stroke-width: 0.5"/>
      </g>
     </g>
    </g>
    <g id="ytick_20">
     <g id="line2d_77">
      <g>
       <use xlink:href="#mabd40842a3" x="33.34" y="81.447727" style="stroke: #000000; stroke-width: 0.5"/>
      </g>
     </g>
     <g id="line2d_78">
      <g>
       <use xlink:href="#m03af762765" x="217.48" y="81.447727" style="stroke: #000000; stroke-width: 0.5"/>
      </g>
     </g>
    </g>
    <g id="ytick_21">
     <g id="line2d_79">
      <g>
       <use xlink:href="#mabd40842a3" x="33.34" y="73.486111" style="stroke: #000000; stroke-width: 0.5"/>
      </g>
     </g>
     <g id="line2d_80">
      <g>
       <use xlink:href="#m03af762765" x="217.48" y="73.486111" style="stroke: #000000; stroke-width: 0.5"/>
      </g>
     </g>
    </g>
    <g id="ytick_22">
     <g id="line2d_81">
      <g>
       <use xlink:href="#mabd40842a3" x="33.34" y="69.505304" style="stroke: #000000; stroke-width: 0.5"/>
      </g>
     </g>
     <g id="line2d_82">
      <g>
       <use xlink:href="#m03af762765" x="217.48" y="69.505304" style="stroke: #000000; stroke-width: 0.5"/>
      </g>
     </g>
    </g>
    <g id="ytick_23">
     <g id="line2d_83">
      <g>
       <use xlink:href="#mabd40842a3" x="33.34" y="65.524496" style="stroke: #000000; stroke-width: 0.5"/>
      </g>
     </g>
     <g id="line2d_84">
      <g>
       <use xlink:href="#m03af762765" x="217.48" y="65.524496" style="stroke: #000000; stroke-width: 0.5"/>
      </g>
     </g>
    </g>
    <g id="ytick_24">
     <g id="line2d_85">
      <g>
       <use xlink:href="#mabd40842a3" x="33.34" y="61.543689" style="stroke: #000000; stroke-width: 0.5"/>
      </g>
     </g>
     <g id="line2d_86">
      <g>
       <use xlink:href="#m03af762765" x="217.48" y="61.543689" style="stroke: #000000; stroke-width: 0.5"/>
      </g>
     </g>
    </g>
    <g id="ytick_25">
     <g id="line2d_87">
      <g>
       <use xlink:href="#mabd40842a3" x="33.34" y="53.582073" style="stroke: #000000; stroke-width: 0.5"/>
      </g>
     </g>
     <g id="line2d_88">
      <g>
       <use xlink:href="#m03af762765" x="217.48" y="53.582073" style="stroke: #000000; stroke-width: 0.5"/>
      </g>
     </g>
    </g>
    <g id="ytick_26">
     <g id="line2d_89">
      <g>
       <use xlink:href="#mabd40842a3" x="33.34" y="49.601266" style="stroke: #000000; stroke-width: 0.5"/>
      </g>
     </g>
     <g id="line2d_90">
      <g>
       <use xlink:href="#m03af762765" x="217.48" y="49.601266" style="stroke: #000000; stroke-width: 0.5"/>
      </g>
     </g>
    </g>
    <g id="ytick_27">
     <g id="line2d_91">
      <g>
       <use xlink:href="#mabd40842a3" x="33.34" y="45.620458" style="stroke: #000000; stroke-width: 0.5"/>
      </g>
     </g>
     <g id="line2d_92">
      <g>
       <use xlink:href="#m03af762765" x="217.48" y="45.620458" style="stroke: #000000; stroke-width: 0.5"/>
      </g>
     </g>
    </g>
    <g id="ytick_28">
     <g id="line2d_93">
      <g>
       <use xlink:href="#mabd40842a3" x="33.34" y="41.63965" style="stroke: #000000; stroke-width: 0.5"/>
      </g>
     </g>
     <g id="line2d_94">
      <g>
       <use xlink:href="#m03af762765" x="217.48" y="41.63965" style="stroke: #000000; stroke-width: 0.5"/>
      </g>
     </g>
    </g>
    <g id="ytick_29">
     <g id="line2d_95">
      <g>
       <use xlink:href="#mabd40842a3" x="33.34" y="33.678035" style="stroke: #000000; stroke-width: 0.5"/>
      </g>
     </g>
     <g id="line2d_96">
      <g>
       <use xlink:href="#m03af762765" x="217.48" y="33.678035" style="stroke: #000000; stroke-width: 0.5"/>
      </g>
     </g>
    </g>
    <g id="ytick_30">
     <g id="line2d_97">
      <g>
       <use xlink:href="#mabd40842a3" x="33.34" y="29.697227" style="stroke: #000000; stroke-width: 0.5"/>
      </g>
     </g>
     <g id="line2d_98">
      <g>
       <use xlink:href="#m03af762765" x="217.48" y="29.697227" style="stroke: #000000; stroke-width: 0.5"/>
      </g>
     </g>
    </g>
    <g id="ytick_31">
     <g id="line2d_99">
      <g>
       <use xlink:href="#mabd40842a3" x="33.34" y="25.71642" style="stroke: #000000; stroke-width: 0.5"/>
      </g>
     </g>
     <g id="line2d_100">
      <g>
       <use xlink:href="#m03af762765" x="217.48" y="25.71642" style="stroke: #000000; stroke-width: 0.5"/>
      </g>
     </g>
    </g>
    <g id="ytick_32">
     <g id="line2d_101">
      <g>
       <use xlink:href="#mabd40842a3" x="33.34" y="21.735612" style="stroke: #000000; stroke-width: 0.5"/>
      </g>
     </g>
     <g id="line2d_102">
      <g>
       <use xlink:href="#m03af762765" x="217.48" y="21.735612" style="stroke: #000000; stroke-width: 0.5"/>
      </g>
     </g>
    </g>
    <g id="ytick_33">
     <g id="line2d_103">
      <g>
       <use xlink:href="#mabd40842a3" x="33.34" y="13.773997" style="stroke: #000000; stroke-width: 0.5"/>
      </g>
     </g>
     <g id="line2d_104">
      <g>
       <use xlink:href="#m03af762765" x="217.48" y="13.773997" style="stroke: #000000; stroke-width: 0.5"/>
      </g>
     </g>
    </g>
    <g id="ytick_34">
     <g id="line2d_105">
      <g>
       <use xlink:href="#mabd40842a3" x="33.34" y="9.793189" style="stroke: #000000; stroke-width: 0.5"/>
      </g>
     </g>
     <g id="line2d_106">
      <g>
       <use xlink:href="#m03af762765" x="217.48" y="9.793189" style="stroke: #000000; stroke-width: 0.5"/>
      </g>
     </g>
    </g>
    <g id="ytick_35">
     <g id="line2d_107">
      <g>
       <use xlink:href="#mabd40842a3" x="33.34" y="5.812382" style="stroke: #000000; stroke-width: 0.5"/>
      </g>
     </g>
     <g id="line2d_108">
      <g>
       <use xlink:href="#m03af762765" x="217.48" y="5.812382" style="stroke: #000000; stroke-width: 0.5"/>
      </g>
     </g>
    </g>
    <g id="text_13">
     <!-- Sum Rate (bps/Hz) -->
     <g transform="translate(9.6 107.50625) rotate(-90) scale(0.08 -0.08)">
      <defs>
       <path id="Cmr10-75" d="M 691 763 
L 691 2175 
Q 691 2347 639 2423 
Q 588 2500 491 2517 
Q 394 2534 191 2534 
L 191 2759 
L 1159 2828 
L 1159 763 
Q 1159 513 1195 373 
Q 1231 234 1348 165 
Q 1466 97 1722 97 
Q 2066 97 2269 384 
Q 2472 672 2472 1038 
L 2472 2175 
Q 2472 2347 2419 2423 
Q 2366 2500 2270 2517 
Q 2175 2534 1972 2534 
L 1972 2759 
L 2938 2828 
L 2938 581 
Q 2938 413 2989 336 
Q 3041 259 3137 242 
Q 3234 225 3438 225 
L 3438 0 
L 2491 -72 
L 2491 469 
Q 2372 228 2159 78 
Q 1947 -72 1691 -72 
Q 1231 -72 961 123 
Q 691 319 691 763 
z
" transform="scale(0.015625)"/>
       <path id="Cmr10-52" d="M 213 0 
L 213 225 
Q 872 225 872 428 
L 872 3944 
Q 872 4147 213 4147 
L 213 4372 
L 2222 4372 
Q 2581 4372 2976 4242 
Q 3372 4113 3637 3847 
Q 3903 3581 3903 3213 
Q 3903 2944 3742 2733 
Q 3581 2522 3329 2380 
Q 3078 2238 2816 2175 
Q 3103 2075 3318 1856 
Q 3534 1638 3578 1356 
L 3669 788 
Q 3731 403 3800 214 
Q 3869 25 4103 25 
Q 4303 25 4401 211 
Q 4500 397 4500 616 
Q 4500 638 4520 655 
Q 4541 672 4563 672 
L 4622 672 
Q 4684 672 4684 588 
Q 4684 413 4615 245 
Q 4547 78 4417 -31 
Q 4288 -141 4109 -141 
Q 3647 -141 3314 89 
Q 2981 319 2981 763 
L 2981 1331 
Q 2981 1650 2759 1878 
Q 2538 2106 2216 2106 
L 1447 2106 
L 1447 428 
Q 1447 225 2106 225 
L 2106 0 
L 213 0 
z
M 1447 2272 
L 2131 2272 
Q 2663 2272 2941 2486 
Q 3219 2700 3219 3213 
Q 3219 3722 2944 3934 
Q 2669 4147 2131 4147 
L 1772 4147 
Q 1656 4147 1592 4137 
Q 1528 4128 1487 4083 
Q 1447 4038 1447 3944 
L 1447 2272 
z
" transform="scale(0.015625)"/>
       <path id="Cmr10-61" d="M 256 628 
Q 256 1009 556 1248 
Q 856 1488 1276 1586 
Q 1697 1684 2075 1684 
L 2075 1947 
Q 2075 2131 1994 2304 
Q 1913 2478 1759 2589 
Q 1606 2700 1422 2700 
Q 997 2700 775 2509 
Q 897 2509 976 2417 
Q 1056 2325 1056 2203 
Q 1056 2075 965 1984 
Q 875 1894 750 1894 
Q 622 1894 531 1984 
Q 441 2075 441 2203 
Q 441 2541 747 2705 
Q 1053 2869 1422 2869 
Q 1681 2869 1943 2758 
Q 2206 2647 2373 2440 
Q 2541 2234 2541 1959 
L 2541 519 
Q 2541 394 2594 289 
Q 2647 184 2759 184 
Q 2866 184 2917 290 
Q 2969 397 2969 519 
L 2969 928 
L 3156 928 
L 3156 519 
Q 3156 375 3081 245 
Q 3006 116 2879 39 
Q 2753 -38 2606 -38 
Q 2419 -38 2283 107 
Q 2147 253 2131 453 
Q 2013 213 1781 70 
Q 1550 -72 1288 -72 
Q 1044 -72 808 0 
Q 572 72 414 226 
Q 256 381 256 628 
z
M 775 628 
Q 775 403 940 250 
Q 1106 97 1331 97 
Q 1538 97 1706 200 
Q 1875 303 1975 481 
Q 2075 659 2075 856 
L 2075 1522 
Q 1784 1522 1479 1426 
Q 1175 1331 975 1128 
Q 775 925 775 628 
z
" transform="scale(0.015625)"/>
       <path id="Cmr10-74" d="M 653 769 
L 653 2534 
L 122 2534 
L 122 2700 
Q 541 2700 737 3090 
Q 934 3481 934 3938 
L 1119 3938 
L 1119 2759 
L 2022 2759 
L 2022 2534 
L 1119 2534 
L 1119 781 
Q 1119 516 1208 316 
Q 1297 116 1528 116 
Q 1747 116 1844 327 
Q 1941 538 1941 781 
L 1941 1159 
L 2125 1159 
L 2125 769 
Q 2125 569 2051 373 
Q 1978 178 1834 53 
Q 1691 -72 1484 -72 
Q 1100 -72 876 158 
Q 653 388 653 769 
z
" transform="scale(0.015625)"/>
       <path id="Cmr10-62" d="M 666 0 
L 666 3788 
Q 666 3959 614 4036 
Q 563 4113 466 4130 
Q 369 4147 166 4147 
L 166 4372 
L 1113 4441 
L 1113 2438 
Q 1219 2556 1361 2645 
Q 1503 2734 1665 2781 
Q 1828 2828 1997 2828 
Q 2284 2828 2529 2712 
Q 2775 2597 2956 2394 
Q 3138 2191 3239 1927 
Q 3341 1663 3341 1381 
Q 3341 994 3152 659 
Q 2963 325 2636 126 
Q 2309 -72 1919 -72 
Q 1675 -72 1447 53 
Q 1219 178 1069 384 
L 850 0 
L 666 0 
z
M 1131 628 
Q 1238 394 1438 245 
Q 1638 97 1881 97 
Q 2213 97 2417 287 
Q 2622 478 2703 768 
Q 2784 1059 2784 1381 
Q 2784 1922 2644 2203 
Q 2581 2328 2473 2434 
Q 2366 2541 2233 2602 
Q 2100 2663 1953 2663 
Q 1697 2663 1478 2527 
Q 1259 2391 1131 2163 
L 1131 628 
z
" transform="scale(0.015625)"/>
       <path id="Cmr10-70" d="M 166 -1241 
L 166 -1019 
Q 384 -1019 525 -981 
Q 666 -944 666 -813 
L 666 2272 
Q 666 2447 541 2490 
Q 416 2534 166 2534 
L 166 2759 
L 1113 2828 
L 1113 2431 
Q 1288 2625 1520 2726 
Q 1753 2828 2016 2828 
Q 2394 2828 2697 2623 
Q 3000 2419 3170 2086 
Q 3341 1753 3341 1381 
Q 3341 994 3152 659 
Q 2963 325 2636 126 
Q 2309 -72 1919 -72 
Q 1453 -72 1131 306 
L 1131 -813 
Q 1131 -944 1273 -981 
Q 1416 -1019 1631 -1019 
L 1631 -1241 
L 166 -1241 
z
M 1131 622 
Q 1244 394 1444 245 
Q 1644 97 1881 97 
Q 2103 97 2273 215 
Q 2444 334 2559 534 
Q 2675 734 2729 954 
Q 2784 1175 2784 1381 
Q 2784 1638 2692 1936 
Q 2600 2234 2411 2439 
Q 2222 2644 1953 2644 
Q 1694 2644 1476 2511 
Q 1259 2378 1131 2150 
L 1131 622 
z
" transform="scale(0.015625)"/>
       <path id="Cmr10-2f" d="M 359 -1472 
Q 359 -1453 366 -1447 
L 2591 4722 
Q 2603 4759 2634 4779 
Q 2666 4800 2706 4800 
Q 2763 4800 2798 4765 
Q 2834 4731 2834 4672 
L 2834 4647 
L 609 -1522 
Q 572 -1600 488 -1600 
Q 434 -1600 396 -1562 
Q 359 -1525 359 -1472 
z
" transform="scale(0.015625)"/>
       <path id="Cmr10-48" d="M 197 0 
L 197 225 
Q 856 225 856 428 
L 856 3944 
Q 856 4147 197 4147 
L 197 4372 
L 2113 4372 
L 2113 4147 
Q 1453 4147 1453 3944 
L 1453 2388 
L 3341 2388 
L 3341 3944 
Q 3341 4147 2681 4147 
L 2681 4372 
L 4594 4372 
L 4594 4147 
Q 3938 4147 3938 3944 
L 3938 428 
Q 3938 225 4594 225 
L 4594 0 
L 2681 0 
L 2681 225 
Q 3341 225 3341 428 
L 3341 2163 
L 1453 2163 
L 1453 428 
Q 1453 225 2113 225 
L 2113 0 
L 197 0 
z
" transform="scale(0.015625)"/>
       <path id="Cmr10-7a" d="M 250 0 
Q 178 0 178 72 
L 178 122 
Q 178 147 197 166 
L 1984 2591 
L 1409 2591 
Q 1138 2591 961 2556 
Q 784 2522 670 2426 
Q 556 2331 504 2164 
Q 453 1997 453 1703 
L 269 1703 
L 341 2759 
L 2484 2759 
Q 2513 2759 2533 2739 
Q 2553 2719 2553 2688 
L 2553 2650 
Q 2553 2631 2541 2606 
L 750 184 
L 1363 184 
Q 1641 184 1827 218 
Q 2013 253 2144 384 
Q 2266 506 2311 712 
Q 2356 919 2381 1222 
L 2566 1222 
L 2456 0 
L 250 0 
z
" transform="scale(0.015625)"/>
      </defs>
      <use xlink:href="#Cmr10-53"/>
      <use xlink:href="#Cmr10-75" transform="translate(55.517578 0)"/>
      <use xlink:href="#Cmr10-6d" transform="translate(111.035156 0)"/>
      <use xlink:href="#Cmr10-20" transform="translate(194.335938 0)"/>
      <use xlink:href="#Cmr10-52" transform="translate(227.636719 0)"/>
      <use xlink:href="#Cmr10-61" transform="translate(301.220703 0)"/>
      <use xlink:href="#Cmr10-74" transform="translate(351.220703 0)"/>
      <use xlink:href="#Cmr10-65" transform="translate(390.039062 0)"/>
      <use xlink:href="#Cmr10-20" transform="translate(434.423828 0)"/>
      <use xlink:href="#Cmr10-28" transform="translate(467.724609 0)"/>
      <use xlink:href="#Cmr10-62" transform="translate(506.542969 0)"/>
      <use xlink:href="#Cmr10-70" transform="translate(562.060547 0)"/>
      <use xlink:href="#Cmr10-73" transform="translate(617.578125 0)"/>
      <use xlink:href="#Cmr10-2f" transform="translate(656.982422 0)"/>
      <use xlink:href="#Cmr10-48" transform="translate(706.982422 0)"/>
      <use xlink:href="#Cmr10-7a" transform="translate(781.982422 0)"/>
      <use xlink:href="#Cmr10-29" transform="translate(826.367188 0)"/>
     </g>
    </g>
   </g>
   <g id="line2d_109">
    <path d="M 41.71 110.205347 
L 48.685 100.897984 
L 55.66 91.388352 
L 62.635 81.325385 
L 69.61 70.767922 
L 76.585 59.824853 
L 83.56 48.589378 
L 90.535 37.137526 
L 97.51 26.4428 
L 104.485 18.924368 
L 111.46 13.724098 
L 118.435 10.625883 
L 125.41 9.9 
L 132.385 10.378991 
L 139.36 12.348752 
L 146.335 16.328121 
L 153.31 23.316173 
L 160.285 32.52359 
L 167.26 44.012424 
L 174.235 56.307732 
L 181.21 68.261906 
L 188.185 79.493625 
L 195.16 89.959349 
L 202.135 99.706423 
L 209.11 108.798812 
" clip-path="url(#p5c2684ba1e)" style="fill: none; stroke: #1d73b6; stroke-width: 2; stroke-linecap: square"/>
    <defs>
     <path id="mb01646bda2" d="M 0 3 
C 0.795609 3 1.55874 2.683901 2.12132 2.12132 
C 2.683901 1.55874 3 0.795609 3 0 
C 3 -0.795609 2.683901 -1.55874 2.12132 -2.12132 
C 1.55874 -2.683901 0.795609 -3 0 -3 
C -0.795609 -3 -1.55874 -2.683901 -2.12132 -2.12132 
C -2.683901 -1.55874 -3 -0.795609 -3 0 
C -3 0.795609 -2.683901 1.55874 -2.12132 2.12132 
C -1.55874 2.683901 -0.795609 3 0 3 
z
" style="stroke: #1d73b6; stroke-width: 2"/>
    </defs>
    <g clip-path="url(#p5c2684ba1e)">
     <use xlink:href="#mb01646bda2" x="41.71" y="110.205347" style="fill: #1d73b6; stroke: #1d73b6; stroke-width: 2"/>
     <use xlink:href="#mb01646bda2" x="48.685" y="100.897984" style="fill: #1d73b6; stroke: #1d73b6; stroke-width: 2"/>
     <use xlink:href="#mb01646bda2" x="55.66" y="91.388352" style="fill: #1d73b6; stroke: #1d73b6; stroke-width: 2"/>
     <use xlink:href="#mb01646bda2" x="62.635" y="81.325385" style="fill: #1d73b6; stroke: #1d73b6; stroke-width: 2"/>
     <use xlink:href="#mb01646bda2" x="69.61" y="70.767922" style="fill: #1d73b6; stroke: #1d73b6; stroke-width: 2"/>
     <use xlink:href="#mb01646bda2" x="76.585" y="59.824853" style="fill: #1d73b6; stroke: #1d73b6; stroke-width: 2"/>
     <use xlink:href="#mb01646bda2" x="83.56" y="48.589378" style="fill: #1d73b6; stroke: #1d73b6; stroke-width: 2"/>
     <use xlink:href="#mb01646bda2" x="90.535" y="37.137526" style="fill: #1d73b6; stroke: #1d73b6; stroke-width: 2"/>
     <use xlink:href="#mb01646bda2" x="97.51" y="26.4428" style="fill: #1d73b6; stroke: #1d73b6; stroke-width: 2"/>
     <use xlink:href="#mb01646bda2" x="104.485" y="18.924368" style="fill: #1d73b6; stroke: #1d73b6; stroke-width: 2"/>
     <use xlink:href="#mb01646bda2" x="111.46" y="13.724098" style="fill: #1d73b6; stroke: #1d73b6; stroke-width: 2"/>
     <use xlink:href="#mb01646bda2" x="118.435" y="10.625883" style="fill: #1d73b6; stroke: #1d73b6; stroke-width: 2"/>
     <use xlink:href="#mb01646bda2" x="125.41" y="9.9" style="fill: #1d73b6; stroke: #1d73b6; stroke-width: 2"/>
     <use xlink:href="#mb01646bda2" x="132.385" y="10.378991" style="fill: #1d73b6; stroke: #1d73b6; stroke-width: 2"/>
     <use xlink:href="#mb01646bda2" x="139.36" y="12.348752" style="fill: #1d73b6; stroke: #1d73b6; stroke-width: 2"/>
     <use xlink:href="#mb01646bda2" x="146.335" y="16.328121" style="fill: #1d73b6; stroke: #1d73b6; stroke-width: 2"/>
     <use xlink:href="#mb01646bda2" x="153.31" y="23.316173" style="fill: #1d73b6; stroke: #1d73b6; stroke-width: 2"/>
     <use xlink:href="#mb01646bda2" x="160.285" y="32.52359" style="fill: #1d73b6; stroke: #1d73b6; stroke-width: 2"/>
     <use xlink:href="#mb01646bda2" x="167.26" y="44.012424" style="fill: #1d73b6; stroke: #1d73b6; stroke-width: 2"/>
     <use xlink:href="#mb01646bda2" x="174.235" y="56.307732" style="fill: #1d73b6; stroke: #1d73b6; stroke-width: 2"/>
     <use xlink:href="#mb01646bda2" x="181.21" y="68.261906" style="fill: #1d73b6; stroke: #1d73b6; stroke-width: 2"/>
     <use xlink:href="#mb01646bda2" x="188.185" y="79.493625" style="fill: #1d73b6; stroke: #1d73b6; stroke-width: 2"/>
     <use xlink:href="#mb01646bda2" x="195.16" y="89.959349" style="fill: #1d73b6; stroke: #1d73b6; stroke-width: 2"/>
     <use xlink:href="#mb01646bda2" x="202.135" y="99.706423" style="fill: #1d73b6; stroke: #1d73b6; stroke-width: 2"/>
     <use xlink:href="#mb01646bda2" x="209.11" y="108.798812" style="fill: #1d73b6; stroke: #1d73b6; stroke-width: 2"/>
    </g>
   </g>
   <g id="line2d_110">
    <path d="M 41.71 135.890436 
L 48.685 126.495611 
L 55.66 117.018829 
L 62.635 107.009039 
L 69.61 96.535157 
L 76.585 85.705396 
L 83.56 74.564332 
L 90.535 63.062405 
L 97.51 52.194935 
L 104.485 44.736272 
L 111.46 39.460549 
L 118.435 36.177391 
L 125.41 35.44516 
L 132.385 35.93449 
L 139.36 37.904602 
L 146.335 41.783554 
L 153.31 48.706642 
L 160.285 57.793149 
L 167.26 69.372181 
L 174.235 81.841787 
L 181.21 93.922269 
L 188.185 105.215647 
L 195.16 115.701389 
L 202.135 125.446184 
L 209.11 134.52664 
" clip-path="url(#p5c2684ba1e)" style="fill: none; stroke-dasharray: 7.4,3.2; stroke-dashoffset: 0; stroke: #24a645; stroke-width: 2"/>
    <defs>
     <path id="mfbc3812d7f" d="M 0 3 
C 0.795609 3 1.55874 2.683901 2.12132 2.12132 
C 2.683901 1.55874 3 0.795609 3 0 
C 3 -0.795609 2.683901 -1.55874 2.12132 -2.12132 
C 1.55874 -2.683901 0.795609 -3 0 -3 
C -0.795609 -3 -1.55874 -2.683901 -2.12132 -2.12132 
C -2.683901 -1.55874 -3 -0.795609 -3 0 
C -3 0.795609 -2.683901 1.55874 -2.12132 2.12132 
C -1.55874 2.683901 -0.795609 3 0 3 
z
" style="stroke: #24a645; stroke-width: 2"/>
    </defs>
    <g clip-path="url(#p5c2684ba1e)">
     <use xlink:href="#mfbc3812d7f" x="41.71" y="135.890436" style="fill: #24a645; stroke: #24a645; stroke-width: 2"/>
     <use xlink:href="#mfbc3812d7f" x="48.685" y="126.495611" style="fill: #24a645; stroke: #24a645; stroke-width: 2"/>
     <use xlink:href="#mfbc3812d7f" x="55.66" y="117.018829" style="fill: #24a645; stroke: #24a645; stroke-width: 2"/>
     <use xlink:href="#mfbc3812d7f" x="62.635" y="107.009039" style="fill: #24a645; stroke: #24a645; stroke-width: 2"/>
     <use xlink:href="#mfbc3812d7f" x="69.61" y="96.535157" style="fill: #24a645; stroke: #24a645; stroke-width: 2"/>
     <use xlink:href="#mfbc3812d7f" x="76.585" y="85.705396" style="fill: #24a645; stroke: #24a645; stroke-width: 2"/>
     <use xlink:href="#mfbc3812d7f" x="83.56" y="74.564332" style="fill: #24a645; stroke: #24a645; stroke-width: 2"/>
     <use xlink:href="#mfbc3812d7f" x="90.535" y="63.062405" style="fill: #24a645; stroke: #24a645; stroke-width: 2"/>
     <use xlink:href="#mfbc3812d7f" x="97.51" y="52.194935" style="fill: #24a645; stroke: #24a645; stroke-width: 2"/>
     <use xlink:href="#mfbc3812d7f" x="104.485" y="44.736272" style="fill: #24a645; stroke: #24a645; stroke-width: 2"/>
     <use xlink:href="#mfbc3812d7f" x="111.46" y="39.460549" style="fill: #24a645; stroke: #24a645; stroke-width: 2"/>
     <use xlink:href="#mfbc3812d7f" x="118.435" y="36.177391" style="fill: #24a645; stroke: #24a645; stroke-width: 2"/>
     <use xlink:href="#mfbc3812d7f" x="125.41" y="35.44516" style="fill: #24a645; stroke: #24a645; stroke-width: 2"/>
     <use xlink:href="#mfbc3812d7f" x="132.385" y="35.93449" style="fill: #24a645; stroke: #24a645; stroke-width: 2"/>
     <use xlink:href="#mfbc3812d7f" x="139.36" y="37.904602" style="fill: #24a645; stroke: #24a645; stroke-width: 2"/>
     <use xlink:href="#mfbc3812d7f" x="146.335" y="41.783554" style="fill: #24a645; stroke: #24a645; stroke-width: 2"/>
     <use xlink:href="#mfbc3812d7f" x="153.31" y="48.706642" style="fill: #24a645; stroke: #24a645; stroke-width: 2"/>
     <use xlink:href="#mfbc3812d7f" x="160.285" y="57.793149" style="fill: #24a645; stroke: #24a645; stroke-width: 2"/>
     <use xlink:href="#mfbc3812d7f" x="167.26" y="69.372181" style="fill: #24a645; stroke: #24a645; stroke-width: 2"/>
     <use xlink:href="#mfbc3812d7f" x="174.235" y="81.841787" style="fill: #24a645; stroke: #24a645; stroke-width: 2"/>
     <use xlink:href="#mfbc3812d7f" x="181.21" y="93.922269" style="fill: #24a645; stroke: #24a645; stroke-width: 2"/>
     <use xlink:href="#mfbc3812d7f" x="188.185" y="105.215647" style="fill: #24a645; stroke: #24a645; stroke-width: 2"/>
     <use xlink:href="#mfbc3812d7f" x="195.16" y="115.701389" style="fill: #24a645; stroke: #24a645; stroke-width: 2"/>
     <use xlink:href="#mfbc3812d7f" x="202.135" y="125.446184" style="fill: #24a645; stroke: #24a645; stroke-width: 2"/>
     <use xlink:href="#mfbc3812d7f" x="209.11" y="134.52664" style="fill: #24a645; stroke: #24a645; stroke-width: 2"/>
    </g>
   </g>
   <g id="line2d_111">
    <path d="M 41.71 135.9 
L 48.685 126.94797 
L 55.66 117.36573 
L 62.635 107.098095 
L 69.61 96.112809 
L 76.585 84.470715 
L 83.56 72.542295 
L 90.535 61.332842 
L 97.51 51.852767 
L 104.485 43.370957 
L 111.46 38.419546 
L 118.435 36.494005 
L 125.41 35.476914 
L 132.385 36.115445 
L 139.36 37.553058 
L 146.335 41.686476 
L 153.31 49.945398 
L 160.285 59.750188 
L 167.26 70.456749 
L 174.235 81.954386 
L 181.21 93.514277 
L 188.185 104.623522 
L 195.16 115.086532 
L 202.135 124.870913 
L 209.11 134.007861 
" clip-path="url(#p5c2684ba1e)" style="fill: none; stroke-dasharray: 7.4,3.2; stroke-dashoffset: 0; stroke: #f27830; stroke-width: 2"/>
    <defs>
     <path id="m73c7874096" d="M -3 0 
L 3 0 
M 0 3 
L 0 -3 
" style="stroke: #f27830; stroke-width: 2"/>
    </defs>
    <g clip-path="url(#p5c2684ba1e)">
     <use xlink:href="#m73c7874096" x="41.71" y="135.9" style="fill: #f27830; stroke: #f27830; stroke-width: 2"/>
     <use xlink:href="#m73c7874096" x="48.685" y="126.94797" style="fill: #f27830; stroke: #f27830; stroke-width: 2"/>
     <use xlink:href="#m73c7874096" x="55.66" y="117.36573" style="fill: #f27830; stroke: #f27830; stroke-width: 2"/>
     <use xlink:href="#m73c7874096" x="62.635" y="107.098095" style="fill: #f27830; stroke: #f27830; stroke-width: 2"/>
     <use xlink:href="#m73c7874096" x="69.61" y="96.112809" style="fill: #f27830; stroke: #f27830; stroke-width: 2"/>
     <use xlink:href="#m73c7874096" x="76.585" y="84.470715" style="fill: #f27830; stroke: #f27830; stroke-width: 2"/>
     <use xlink:href="#m73c7874096" x="83.56" y="72.542295" style="fill: #f27830; stroke: #f27830; stroke-width: 2"/>
     <use xlink:href="#m73c7874096" x="90.535" y="61.332842" style="fill: #f27830; stroke: #f27830; stroke-width: 2"/>
     <use xlink:href="#m73c7874096" x="97.51" y="51.852767" style="fill: #f27830; stroke: #f27830; stroke-width: 2"/>
     <use xlink:href="#m73c7874096" x="104.485" y="43.370957" style="fill: #f27830; stroke: #f27830; stroke-width: 2"/>
     <use xlink:href="#m73c7874096" x="111.46" y="38.419546" style="fill: #f27830; stroke: #f27830; stroke-width: 2"/>
     <use xlink:href="#m73c7874096" x="118.435" y="36.494005" style="fill: #f27830; stroke: #f27830; stroke-width: 2"/>
     <use xlink:href="#m73c7874096" x="125.41" y="35.476914" style="fill: #f27830; stroke: #f27830; stroke-width: 2"/>
     <use xlink:href="#m73c7874096" x="132.385" y="36.115445" style="fill: #f27830; stroke: #f27830; stroke-width: 2"/>
     <use xlink:href="#m73c7874096" x="139.36" y="37.553058" style="fill: #f27830; stroke: #f27830; stroke-width: 2"/>
     <use xlink:href="#m73c7874096" x="146.335" y="41.686476" style="fill: #f27830; stroke: #f27830; stroke-width: 2"/>
     <use xlink:href="#m73c7874096" x="153.31" y="49.945398" style="fill: #f27830; stroke: #f27830; stroke-width: 2"/>
     <use xlink:href="#m73c7874096" x="160.285" y="59.750188" style="fill: #f27830; stroke: #f27830; stroke-width: 2"/>
     <use xlink:href="#m73c7874096" x="167.26" y="70.456749" style="fill: #f27830; stroke: #f27830; stroke-width: 2"/>
     <use xlink:href="#m73c7874096" x="174.235" y="81.954386" style="fill: #f27830; stroke: #f27830; stroke-width: 2"/>
     <use xlink:href="#m73c7874096" x="181.21" y="93.514277" style="fill: #f27830; stroke: #f27830; stroke-width: 2"/>
     <use xlink:href="#m73c7874096" x="188.185" y="104.623522" style="fill: #f27830; stroke: #f27830; stroke-width: 2"/>
     <use xlink:href="#m73c7874096" x="195.16" y="115.086532" style="fill: #f27830; stroke: #f27830; stroke-width: 2"/>
     <use xlink:href="#m73c7874096" x="202.135" y="124.870913" style="fill: #f27830; stroke: #f27830; stroke-width: 2"/>
     <use xlink:href="#m73c7874096" x="209.11" y="134.007861" style="fill: #f27830; stroke: #f27830; stroke-width: 2"/>
    </g>
   </g>
   <g id="patch_3">
    <path d="M 33.34 142.2 
L 33.34 3.6 
" style="fill: none; stroke: #000000; stroke-width: 0.5; stroke-linejoin: miter; stroke-linecap: square"/>
   </g>
   <g id="patch_4">
    <path d="M 217.48 142.2 
L 217.48 3.6 
" style="fill: none; stroke: #000000; stroke-width: 0.5; stroke-linejoin: miter; stroke-linecap: square"/>
   </g>
   <g id="patch_5">
    <path d="M 33.34 142.2 
L 217.48 142.2 
" style="fill: none; stroke: #000000; stroke-width: 0.5; stroke-linejoin: miter; stroke-linecap: square"/>
   </g>
   <g id="patch_6">
    <path d="M 33.34 3.6 
L 217.48 3.6 
" style="fill: none; stroke: #000000; stroke-width: 0.5; stroke-linejoin: miter; stroke-linecap: square"/>
   </g>
   <g id="legend_1">
    <g id="line2d_112">
     <path d="M 52.705 108.305 
L 60.705 108.305 
L 68.705 108.305 
" style="fill: none; stroke: #1d73b6; stroke-width: 2; stroke-linecap: square"/>
     <g>
      <use xlink:href="#mb01646bda2" x="60.705" y="108.305" style="fill: #1d73b6; stroke: #1d73b6; stroke-width: 2"/>
     </g>
    </g>
    <g id="text_14">
     <!-- RIS with optimised-phase elements -->
     <g transform="translate(75.105 111.105) scale(0.08 -0.08)">
      <defs>
       <path id="Cmr10-49" d="M 166 0 
L 166 225 
Q 856 225 856 428 
L 856 3944 
Q 856 4147 166 4147 
L 166 4372 
L 2144 4372 
L 2144 4147 
Q 1453 4147 1453 3944 
L 1453 428 
Q 1453 225 2144 225 
L 2144 0 
L 166 0 
z
" transform="scale(0.015625)"/>
       <path id="Cmr10-77" d="M 1416 0 
L 588 2328 
Q 531 2469 425 2501 
Q 319 2534 116 2534 
L 116 2759 
L 1434 2759 
L 1434 2534 
Q 1056 2534 1056 2375 
Q 1059 2366 1061 2356 
Q 1063 2347 1063 2328 
L 1678 603 
L 2209 2106 
L 2125 2328 
Q 2075 2469 1965 2501 
Q 1856 2534 1656 2534 
L 1656 2759 
L 2919 2759 
L 2919 2534 
Q 2541 2534 2541 2375 
Q 2541 2350 2547 2328 
L 3188 525 
L 3769 2156 
Q 3781 2206 3781 2247 
Q 3781 2381 3667 2457 
Q 3553 2534 3413 2534 
L 3413 2759 
L 4500 2759 
L 4500 2534 
Q 4306 2534 4167 2432 
Q 4028 2331 3963 2156 
L 3200 0 
Q 3178 -72 3103 -72 
L 3053 -72 
Q 2978 -72 2956 0 
L 2309 1825 
L 1663 0 
Q 1631 -72 1563 -72 
L 1516 -72 
Q 1438 -72 1416 0 
z
" transform="scale(0.015625)"/>
       <path id="Cmr10-68" d="M 191 0 
L 191 225 
Q 409 225 550 259 
Q 691 294 691 428 
L 691 3788 
Q 691 3959 639 4036 
Q 588 4113 491 4130 
Q 394 4147 191 4147 
L 191 4372 
L 1141 4441 
L 1141 2241 
Q 1275 2506 1515 2667 
Q 1756 2828 2047 2828 
Q 2491 2828 2714 2615 
Q 2938 2403 2938 1966 
L 2938 428 
Q 2938 294 3078 259 
Q 3219 225 3438 225 
L 3438 0 
L 1972 0 
L 1972 225 
Q 2191 225 2331 259 
Q 2472 294 2472 428 
L 2472 1947 
Q 2472 2259 2381 2461 
Q 2291 2663 2009 2663 
Q 1638 2663 1398 2366 
Q 1159 2069 1159 1691 
L 1159 428 
Q 1159 294 1300 259 
Q 1441 225 1656 225 
L 1656 0 
L 191 0 
z
" transform="scale(0.015625)"/>
       <path id="Cmr10-6f" d="M 1600 -72 
Q 1216 -72 887 123 
Q 559 319 368 647 
Q 178 975 178 1363 
Q 178 1656 283 1928 
Q 388 2200 583 2414 
Q 778 2628 1037 2748 
Q 1297 2869 1600 2869 
Q 1994 2869 2317 2661 
Q 2641 2453 2828 2104 
Q 3016 1756 3016 1363 
Q 3016 978 2825 648 
Q 2634 319 2307 123 
Q 1981 -72 1600 -72 
z
M 1600 116 
Q 2113 116 2284 487 
Q 2456 859 2456 1434 
Q 2456 1756 2422 1967 
Q 2388 2178 2272 2350 
Q 2200 2456 2089 2536 
Q 1978 2616 1854 2658 
Q 1731 2700 1600 2700 
Q 1400 2700 1220 2609 
Q 1041 2519 922 2350 
Q 803 2169 770 1951 
Q 738 1734 738 1434 
Q 738 1075 800 789 
Q 863 503 1052 309 
Q 1241 116 1600 116 
z
" transform="scale(0.015625)"/>
       <path id="Cmr10-64" d="M 1563 -72 
Q 1184 -72 871 133 
Q 559 338 386 672 
Q 213 1006 213 1381 
Q 213 1769 402 2101 
Q 591 2434 916 2631 
Q 1241 2828 1631 2828 
Q 1866 2828 2075 2729 
Q 2284 2631 2438 2456 
L 2438 3788 
Q 2438 3959 2386 4036 
Q 2334 4113 2239 4130 
Q 2144 4147 1941 4147 
L 1941 4372 
L 2888 4441 
L 2888 581 
Q 2888 413 2939 336 
Q 2991 259 3086 242 
Q 3181 225 3384 225 
L 3384 0 
L 2419 -72 
L 2419 331 
Q 2253 141 2025 34 
Q 1797 -72 1563 -72 
z
M 909 556 
Q 1019 347 1201 222 
Q 1384 97 1600 97 
Q 1866 97 2087 250 
Q 2309 403 2419 647 
L 2419 2181 
Q 2344 2322 2230 2433 
Q 2116 2544 1973 2603 
Q 1831 2663 1672 2663 
Q 1338 2663 1134 2473 
Q 931 2284 850 1990 
Q 769 1697 769 1375 
Q 769 1119 795 928 
Q 822 738 909 556 
z
" transform="scale(0.015625)"/>
       <path id="Cmr10-2d" d="M 72 1184 
L 72 1581 
L 1766 1581 
L 1766 1184 
L 72 1184 
z
" transform="scale(0.015625)"/>
       <path id="Cmr10-6c" d="M 197 0 
L 197 225 
Q 416 225 556 259 
Q 697 294 697 428 
L 697 3788 
Q 697 3959 645 4036 
Q 594 4113 497 4130 
Q 400 4147 197 4147 
L 197 4372 
L 1147 4441 
L 1147 428 
Q 1147 294 1287 259 
Q 1428 225 1644 225 
L 1644 0 
L 197 0 
z
" transform="scale(0.015625)"/>
       <path id="Cmr10-6e" d="M 191 0 
L 191 225 
Q 409 225 550 259 
Q 691 294 691 428 
L 691 2175 
Q 691 2347 639 2423 
Q 588 2500 491 2517 
Q 394 2534 191 2534 
L 191 2759 
L 1119 2828 
L 1119 2203 
Q 1247 2478 1498 2653 
Q 1750 2828 2047 2828 
Q 2491 2828 2714 2615 
Q 2938 2403 2938 1966 
L 2938 428 
Q 2938 294 3078 259 
Q 3219 225 3438 225 
L 3438 0 
L 1972 0 
L 1972 225 
Q 2191 225 2331 259 
Q 2472 294 2472 428 
L 2472 1947 
Q 2472 2259 2381 2461 
Q 2291 2663 2009 2663 
Q 1638 2663 1398 2366 
Q 1159 2069 1159 1691 
L 1159 428 
Q 1159 294 1300 259 
Q 1441 225 1656 225 
L 1656 0 
L 191 0 
z
" transform="scale(0.015625)"/>
      </defs>
      <use xlink:href="#Cmr10-52"/>
      <use xlink:href="#Cmr10-49" transform="translate(73.583984 0)"/>
      <use xlink:href="#Cmr10-53" transform="translate(109.667969 0)"/>
      <use xlink:href="#Cmr10-20" transform="translate(165.185547 0)"/>
      <use xlink:href="#Cmr10-77" transform="translate(198.486328 0)"/>
      <use xlink:href="#Cmr10-69" transform="translate(270.703125 0)"/>
      <use xlink:href="#Cmr10-74" transform="translate(298.388672 0)"/>
      <use xlink:href="#Cmr10-68" transform="translate(337.207031 0)"/>
      <use xlink:href="#Cmr10-20" transform="translate(392.724609 0)"/>
      <use xlink:href="#Cmr10-6f" transform="translate(426.025391 0)"/>
      <use xlink:href="#Cmr10-70" transform="translate(476.025391 0)"/>
      <use xlink:href="#Cmr10-74" transform="translate(531.542969 0)"/>
      <use xlink:href="#Cmr10-69" transform="translate(570.361328 0)"/>
      <use xlink:href="#Cmr10-6d" transform="translate(598.046875 0)"/>
      <use xlink:href="#Cmr10-69" transform="translate(681.347656 0)"/>
      <use xlink:href="#Cmr10-73" transform="translate(709.033203 0)"/>
      <use xlink:href="#Cmr10-65" transform="translate(748.4375 0)"/>
      <use xlink:href="#Cmr10-64" transform="translate(792.822266 0)"/>
      <use xlink:href="#Cmr10-2d" transform="translate(848.339844 0)"/>
      <use xlink:href="#Cmr10-70" transform="translate(881.640625 0)"/>
      <use xlink:href="#Cmr10-68" transform="translate(937.158203 0)"/>
      <use xlink:href="#Cmr10-61" transform="translate(992.675781 0)"/>
      <use xlink:href="#Cmr10-73" transform="translate(1042.675781 0)"/>
      <use xlink:href="#Cmr10-65" transform="translate(1082.080078 0)"/>
      <use xlink:href="#Cmr10-20" transform="translate(1126.464844 0)"/>
      <use xlink:href="#Cmr10-65" transform="translate(1159.765625 0)"/>
      <use xlink:href="#Cmr10-6c" transform="translate(1204.150391 0)"/>
      <use xlink:href="#Cmr10-65" transform="translate(1231.835938 0)"/>
      <use xlink:href="#Cmr10-6d" transform="translate(1276.220703 0)"/>
      <use xlink:href="#Cmr10-65" transform="translate(1359.521484 0)"/>
      <use xlink:href="#Cmr10-6e" transform="translate(1403.90625 0)"/>
      <use xlink:href="#Cmr10-74" transform="translate(1459.423828 0)"/>
      <use xlink:href="#Cmr10-73" transform="translate(1498.242188 0)"/>
     </g>
    </g>
    <g id="line2d_113">
     <path d="M 52.705 119.4975 
L 60.705 119.4975 
L 68.705 119.4975 
" style="fill: none; stroke-dasharray: 7.4,3.2; stroke-dashoffset: 0; stroke: #24a645; stroke-width: 2"/>
     <g>
      <use xlink:href="#mfbc3812d7f" x="60.705" y="119.4975" style="fill: #24a645; stroke: #24a645; stroke-width: 2"/>
     </g>
    </g>
    <g id="text_15">
     <!-- RIS with random-phase elements -->
     <g transform="translate(75.105 122.2975) scale(0.08 -0.08)">
      <use xlink:href="#Cmr10-52"/>
      <use xlink:href="#Cmr10-49" transform="translate(73.583984 0)"/>
      <use xlink:href="#Cmr10-53" transform="translate(109.667969 0)"/>
      <use xlink:href="#Cmr10-20" transform="translate(165.185547 0)"/>
      <use xlink:href="#Cmr10-77" transform="translate(198.486328 0)"/>
      <use xlink:href="#Cmr10-69" transform="translate(270.703125 0)"/>
      <use xlink:href="#Cmr10-74" transform="translate(298.388672 0)"/>
      <use xlink:href="#Cmr10-68" transform="translate(337.207031 0)"/>
      <use xlink:href="#Cmr10-20" transform="translate(392.724609 0)"/>
      <use xlink:href="#Cmr10-72" transform="translate(426.025391 0)"/>
      <use xlink:href="#Cmr10-61" transform="translate(465.136719 0)"/>
      <use xlink:href="#Cmr10-6e" transform="translate(515.136719 0)"/>
      <use xlink:href="#Cmr10-64" transform="translate(570.654297 0)"/>
      <use xlink:href="#Cmr10-6f" transform="translate(626.171875 0)"/>
      <use xlink:href="#Cmr10-6d" transform="translate(676.171875 0)"/>
      <use xlink:href="#Cmr10-2d" transform="translate(759.472656 0)"/>
      <use xlink:href="#Cmr10-70" transform="translate(792.773438 0)"/>
      <use xlink:href="#Cmr10-68" transform="translate(848.291016 0)"/>
      <use xlink:href="#Cmr10-61" transform="translate(903.808594 0)"/>
      <use xlink:href="#Cmr10-73" transform="translate(953.808594 0)"/>
      <use xlink:href="#Cmr10-65" transform="translate(993.212891 0)"/>
      <use xlink:href="#Cmr10-20" transform="translate(1037.597656 0)"/>
      <use xlink:href="#Cmr10-65" transform="translate(1070.898438 0)"/>
      <use xlink:href="#Cmr10-6c" transform="translate(1115.283203 0)"/>
      <use xlink:href="#Cmr10-65" transform="translate(1142.96875 0)"/>
      <use xlink:href="#Cmr10-6d" transform="translate(1187.353516 0)"/>
      <use xlink:href="#Cmr10-65" transform="translate(1270.654297 0)"/>
      <use xlink:href="#Cmr10-6e" transform="translate(1315.039062 0)"/>
      <use xlink:href="#Cmr10-74" transform="translate(1370.556641 0)"/>
      <use xlink:href="#Cmr10-73" transform="translate(1409.375 0)"/>
     </g>
    </g>
    <g id="line2d_114">
     <path d="M 52.705 130.64875 
L 60.705 130.64875 
L 68.705 130.64875 
" style="fill: none; stroke-dasharray: 7.4,3.2; stroke-dashoffset: 0; stroke: #f27830; stroke-width: 2"/>
     <g>
      <use xlink:href="#m73c7874096" x="60.705" y="130.64875" style="fill: #f27830; stroke: #f27830; stroke-width: 2"/>
     </g>
    </g>
    <g id="text_16">
     <!-- RIS without elements -->
     <g transform="translate(75.105 133.44875) scale(0.08 -0.08)">
      <use xlink:href="#Cmr10-52"/>
      <use xlink:href="#Cmr10-49" transform="translate(73.583984 0)"/>
      <use xlink:href="#Cmr10-53" transform="translate(109.667969 0)"/>
      <use xlink:href="#Cmr10-20" transform="translate(165.185547 0)"/>
      <use xlink:href="#Cmr10-77" transform="translate(198.486328 0)"/>
      <use xlink:href="#Cmr10-69" transform="translate(270.703125 0)"/>
      <use xlink:href="#Cmr10-74" transform="translate(298.388672 0)"/>
      <use xlink:href="#Cmr10-68" transform="translate(337.207031 0)"/>
      <use xlink:href="#Cmr10-6f" transform="translate(392.724609 0)"/>
      <use xlink:href="#Cmr10-75" transform="translate(442.724609 0)"/>
      <use xlink:href="#Cmr10-74" transform="translate(498.242188 0)"/>
      <use xlink:href="#Cmr10-20" transform="translate(537.060547 0)"/>
      <use xlink:href="#Cmr10-65" transform="translate(570.361328 0)"/>
      <use xlink:href="#Cmr10-6c" transform="translate(614.746094 0)"/>
      <use xlink:href="#Cmr10-65" transform="translate(642.431641 0)"/>
      <use xlink:href="#Cmr10-6d" transform="translate(686.816406 0)"/>
      <use xlink:href="#Cmr10-65" transform="translate(770.117188 0)"/>
      <use xlink:href="#Cmr10-6e" transform="translate(814.501953 0)"/>
      <use xlink:href="#Cmr10-74" transform="translate(870.019531 0)"/>
      <use xlink:href="#Cmr10-73" transform="translate(908.837891 0)"/>
     </g>
    </g>
   </g>
  </g>
 </g>
 <defs>
  <clipPath id="p5c2684ba1e">
   <rect x="33.34" y="3.6" width="184.14" height="138.6"/>
  </clipPath>
 </defs>
</svg>
