<?xml version="1.0" encoding="utf-8" standalone="no"?>
<!DOCTYPE svg PUBLIC "-//W3C//DTD SVG 1.1//EN"
  "http://www.w3.org/Graphics/SVG/1.1/DTD/svg11.dtd">
<svg xmlns:xlink="http://www.w3.org/1999/xlink" width="559.722187pt" height="415.548125pt" viewBox="0 0 559.722187 415.548125" xmlns="http://www.w3.org/2000/svg" version="1.1">
 <metadata>
  <rdf:RDF xmlns:dc="http://purl.org/dc/elements/1.1/" xmlns:cc="http://creativecommons.org/ns#" xmlns:rdf="http://www.w3.org/1999/02/22-rdf-syntax-ns#">
   <cc:Work>
    <dc:type rdf:resource="http://purl.org/dc/dcmitype/StillImage"/>
    <dc:date>2025-04-09T10:26:54.537155</dc:date>
    <dc:format>image/svg+xml</dc:format>
    <dc:creator>
     <cc:Agent>
      <dc:title>Matplotlib v3.7.3, https://matplotlib.org/</dc:title>
     </cc:Agent>
    </dc:creator>
   </cc:Work>
  </rdf:RDF>
 </metadata>
 <defs>
  <style type="text/css">*{stroke-linejoin: round; stroke-linecap: butt}</style>
 </defs>
 <g id="figure_1">
  <g id="patch_1">
   <path d="M 0 415.548125 
L 559.722187 415.548125 
L 559.722187 0 
L 0 0 
z
" style="fill: #ffffff"/>
  </g>
  <g id="axes_1">
   <g id="patch_2">
    <path d="M 55.415938 371.91625 
L 552.522187 371.91625 
L 552.522187 7.2 
L 55.415938 7.2 
z
" style="fill: #ffffff"/>
   </g>
   <g id="matplotlib.axis_1">
    <g id="xtick_1">
     <g id="line2d_1">
      <path d="M 78.011676 371.91625 
L 78.011676 7.2 
" clip-path="url(#p04c780023c)" style="fill: none; stroke: #b0b0b0; stroke-opacity: 0.3; stroke-width: 0.8; stroke-linecap: square"/>
     </g>
     <g id="line2d_2">
      <defs>
       <path id="m20bfb2e828" d="M 0 0 
L 0 3.5 
" style="stroke: #000000; stroke-width: 0.8"/>
      </defs>
      <g>
       <use xlink:href="#m20bfb2e828" x="78.011676" y="371.91625" style="stroke: #000000; stroke-width: 0.8"/>
      </g>
     </g>
     <g id="text_1">
      <!-- 0 -->
      <g transform="translate(74.511676 388.6375) scale(0.14 -0.14)">
       <defs>
        <path id="TimesNewRomanPSMT-30" d="M 231 2094 
Q 231 2819 450 3342 
Q 669 3866 1031 4122 
Q 1313 4325 1613 4325 
Q 2100 4325 2488 3828 
Q 2972 3213 2972 2159 
Q 2972 1422 2759 906 
Q 2547 391 2217 158 
Q 1888 -75 1581 -75 
Q 975 -75 572 641 
Q 231 1244 231 2094 
z
M 844 2016 
Q 844 1141 1059 588 
Q 1238 122 1591 122 
Q 1759 122 1940 273 
Q 2122 425 2216 781 
Q 2359 1319 2359 2297 
Q 2359 3022 2209 3506 
Q 2097 3866 1919 4016 
Q 1791 4119 1609 4119 
Q 1397 4119 1231 3928 
Q 1006 3669 925 3112 
Q 844 2556 844 2016 
z
" transform="scale(0.015625)"/>
       </defs>
       <use xlink:href="#TimesNewRomanPSMT-30"/>
      </g>
     </g>
    </g>
    <g id="xtick_2">
     <g id="line2d_3">
      <path d="M 140.777617 371.91625 
L 140.777617 7.2 
" clip-path="url(#p04c780023c)" style="fill: none; stroke: #b0b0b0; stroke-opacity: 0.3; stroke-width: 0.8; stroke-linecap: square"/>
     </g>
     <g id="line2d_4">
      <g>
       <use xlink:href="#m20bfb2e828" x="140.777617" y="371.91625" style="stroke: #000000; stroke-width: 0.8"/>
      </g>
     </g>
     <g id="text_2">
      <!-- 50 -->
      <g transform="translate(133.777617 388.6375) scale(0.14 -0.14)">
       <defs>
        <path id="TimesNewRomanPSMT-35" d="M 2778 4238 
L 2534 3706 
L 1259 3706 
L 981 3138 
Q 1809 3016 2294 2522 
Q 2709 2097 2709 1522 
Q 2709 1188 2573 903 
Q 2438 619 2231 419 
Q 2025 219 1772 97 
Q 1413 -75 1034 -75 
Q 653 -75 479 54 
Q 306 184 306 341 
Q 306 428 378 495 
Q 450 563 559 563 
Q 641 563 702 538 
Q 763 513 909 409 
Q 1144 247 1384 247 
Q 1750 247 2026 523 
Q 2303 800 2303 1197 
Q 2303 1581 2056 1914 
Q 1809 2247 1375 2428 
Q 1034 2569 447 2591 
L 1259 4238 
L 2778 4238 
z
" transform="scale(0.015625)"/>
       </defs>
       <use xlink:href="#TimesNewRomanPSMT-35"/>
       <use xlink:href="#TimesNewRomanPSMT-30" x="50"/>
      </g>
     </g>
    </g>
    <g id="xtick_3">
     <g id="line2d_5">
      <path d="M 203.543557 371.91625 
L 203.543557 7.2 
" clip-path="url(#p04c780023c)" style="fill: none; stroke: #b0b0b0; stroke-opacity: 0.3; stroke-width: 0.8; stroke-linecap: square"/>
     </g>
     <g id="line2d_6">
      <g>
       <use xlink:href="#m20bfb2e828" x="203.543557" y="371.91625" style="stroke: #000000; stroke-width: 0.8"/>
      </g>
     </g>
     <g id="text_3">
      <!-- 100 -->
      <g transform="translate(193.043557 388.6375) scale(0.14 -0.14)">
       <defs>
        <path id="TimesNewRomanPSMT-31" d="M 750 3822 
L 1781 4325 
L 1884 4325 
L 1884 747 
Q 1884 391 1914 303 
Q 1944 216 2037 169 
Q 2131 122 2419 116 
L 2419 0 
L 825 0 
L 825 116 
Q 1125 122 1212 167 
Q 1300 213 1334 289 
Q 1369 366 1369 747 
L 1369 3034 
Q 1369 3497 1338 3628 
Q 1316 3728 1258 3775 
Q 1200 3822 1119 3822 
Q 1003 3822 797 3725 
L 750 3822 
z
" transform="scale(0.015625)"/>
       </defs>
       <use xlink:href="#TimesNewRomanPSMT-31"/>
       <use xlink:href="#TimesNewRomanPSMT-30" x="50"/>
       <use xlink:href="#TimesNewRomanPSMT-30" x="100"/>
      </g>
     </g>
    </g>
    <g id="xtick_4">
     <g id="line2d_7">
      <path d="M 266.309498 371.91625 
L 266.309498 7.2 
" clip-path="url(#p04c780023c)" style="fill: none; stroke: #b0b0b0; stroke-opacity: 0.3; stroke-width: 0.8; stroke-linecap: square"/>
     </g>
     <g id="line2d_8">
      <g>
       <use xlink:href="#m20bfb2e828" x="266.309498" y="371.91625" style="stroke: #000000; stroke-width: 0.8"/>
      </g>
     </g>
     <g id="text_4">
      <!-- 150 -->
      <g transform="translate(255.809498 388.6375) scale(0.14 -0.14)">
       <use xlink:href="#TimesNewRomanPSMT-31"/>
       <use xlink:href="#TimesNewRomanPSMT-35" x="50"/>
       <use xlink:href="#TimesNewRomanPSMT-30" x="100"/>
      </g>
     </g>
    </g>
    <g id="xtick_5">
     <g id="line2d_9">
      <path d="M 329.075439 371.91625 
L 329.075439 7.2 
" clip-path="url(#p04c780023c)" style="fill: none; stroke: #b0b0b0; stroke-opacity: 0.3; stroke-width: 0.8; stroke-linecap: square"/>
     </g>
     <g id="line2d_10">
      <g>
       <use xlink:href="#m20bfb2e828" x="329.075439" y="371.91625" style="stroke: #000000; stroke-width: 0.8"/>
      </g>
     </g>
     <g id="text_5">
      <!-- 200 -->
      <g transform="translate(318.575439 388.6375) scale(0.14 -0.14)">
       <defs>
        <path id="TimesNewRomanPSMT-32" d="M 2934 816 
L 2638 0 
L 138 0 
L 138 116 
Q 1241 1122 1691 1759 
Q 2141 2397 2141 2925 
Q 2141 3328 1894 3587 
Q 1647 3847 1303 3847 
Q 991 3847 742 3664 
Q 494 3481 375 3128 
L 259 3128 
Q 338 3706 661 4015 
Q 984 4325 1469 4325 
Q 1984 4325 2329 3994 
Q 2675 3663 2675 3213 
Q 2675 2891 2525 2569 
Q 2294 2063 1775 1497 
Q 997 647 803 472 
L 1909 472 
Q 2247 472 2383 497 
Q 2519 522 2628 598 
Q 2738 675 2819 816 
L 2934 816 
z
" transform="scale(0.015625)"/>
       </defs>
       <use xlink:href="#TimesNewRomanPSMT-32"/>
       <use xlink:href="#TimesNewRomanPSMT-30" x="50"/>
       <use xlink:href="#TimesNewRomanPSMT-30" x="100"/>
      </g>
     </g>
    </g>
    <g id="xtick_6">
     <g id="line2d_11">
      <path d="M 391.841379 371.91625 
L 391.841379 7.2 
" clip-path="url(#p04c780023c)" style="fill: none; stroke: #b0b0b0; stroke-opacity: 0.3; stroke-width: 0.8; stroke-linecap: square"/>
     </g>
     <g id="line2d_12">
      <g>
       <use xlink:href="#m20bfb2e828" x="391.841379" y="371.91625" style="stroke: #000000; stroke-width: 0.8"/>
      </g>
     </g>
     <g id="text_6">
      <!-- 250 -->
      <g transform="translate(381.341379 388.6375) scale(0.14 -0.14)">
       <use xlink:href="#TimesNewRomanPSMT-32"/>
       <use xlink:href="#TimesNewRomanPSMT-35" x="50"/>
       <use xlink:href="#TimesNewRomanPSMT-30" x="100"/>
      </g>
     </g>
    </g>
    <g id="xtick_7">
     <g id="line2d_13">
      <path d="M 454.60732 371.91625 
L 454.60732 7.2 
" clip-path="url(#p04c780023c)" style="fill: none; stroke: #b0b0b0; stroke-opacity: 0.3; stroke-width: 0.8; stroke-linecap: square"/>
     </g>
     <g id="line2d_14">
      <g>
       <use xlink:href="#m20bfb2e828" x="454.60732" y="371.91625" style="stroke: #000000; stroke-width: 0.8"/>
      </g>
     </g>
     <g id="text_7">
      <!-- 300 -->
      <g transform="translate(444.10732 388.6375) scale(0.14 -0.14)">
       <defs>
        <path id="TimesNewRomanPSMT-33" d="M 325 3431 
Q 506 3859 782 4092 
Q 1059 4325 1472 4325 
Q 1981 4325 2253 3994 
Q 2459 3747 2459 3466 
Q 2459 3003 1878 2509 
Q 2269 2356 2469 2072 
Q 2669 1788 2669 1403 
Q 2669 853 2319 450 
Q 1863 -75 997 -75 
Q 569 -75 414 31 
Q 259 138 259 259 
Q 259 350 332 419 
Q 406 488 509 488 
Q 588 488 669 463 
Q 722 447 909 348 
Q 1097 250 1169 231 
Q 1284 197 1416 197 
Q 1734 197 1970 444 
Q 2206 691 2206 1028 
Q 2206 1275 2097 1509 
Q 2016 1684 1919 1775 
Q 1784 1900 1550 2001 
Q 1316 2103 1072 2103 
L 972 2103 
L 972 2197 
Q 1219 2228 1467 2375 
Q 1716 2522 1828 2728 
Q 1941 2934 1941 3181 
Q 1941 3503 1739 3701 
Q 1538 3900 1238 3900 
Q 753 3900 428 3381 
L 325 3431 
z
" transform="scale(0.015625)"/>
       </defs>
       <use xlink:href="#TimesNewRomanPSMT-33"/>
       <use xlink:href="#TimesNewRomanPSMT-30" x="50"/>
       <use xlink:href="#TimesNewRomanPSMT-30" x="100"/>
      </g>
     </g>
    </g>
    <g id="xtick_8">
     <g id="line2d_15">
      <path d="M 517.373261 371.91625 
L 517.373261 7.2 
" clip-path="url(#p04c780023c)" style="fill: none; stroke: #b0b0b0; stroke-opacity: 0.3; stroke-width: 0.8; stroke-linecap: square"/>
     </g>
     <g id="line2d_16">
      <g>
       <use xlink:href="#m20bfb2e828" x="517.373261" y="371.91625" style="stroke: #000000; stroke-width: 0.8"/>
      </g>
     </g>
     <g id="text_8">
      <!-- 350 -->
      <g transform="translate(506.873261 388.6375) scale(0.14 -0.14)">
       <use xlink:href="#TimesNewRomanPSMT-33"/>
       <use xlink:href="#TimesNewRomanPSMT-35" x="50"/>
       <use xlink:href="#TimesNewRomanPSMT-30" x="100"/>
      </g>
     </g>
    </g>
    <g id="text_9">
     <!-- Service Time (s) -->
     <g transform="translate(257.688125 405.353437) scale(0.14 -0.14)">
      <defs>
       <path id="TimesNewRomanPSMT-53" d="M 2934 4334 
L 2934 2869 
L 2819 2869 
Q 2763 3291 2617 3541 
Q 2472 3791 2203 3937 
Q 1934 4084 1647 4084 
Q 1322 4084 1109 3886 
Q 897 3688 897 3434 
Q 897 3241 1031 3081 
Q 1225 2847 1953 2456 
Q 2547 2138 2764 1967 
Q 2981 1797 3098 1565 
Q 3216 1334 3216 1081 
Q 3216 600 2842 251 
Q 2469 -97 1881 -97 
Q 1697 -97 1534 -69 
Q 1438 -53 1133 45 
Q 828 144 747 144 
Q 669 144 623 97 
Q 578 50 556 -97 
L 441 -97 
L 441 1356 
L 556 1356 
Q 638 900 775 673 
Q 913 447 1195 297 
Q 1478 147 1816 147 
Q 2206 147 2432 353 
Q 2659 559 2659 841 
Q 2659 997 2573 1156 
Q 2488 1316 2306 1453 
Q 2184 1547 1640 1851 
Q 1097 2156 867 2337 
Q 638 2519 519 2737 
Q 400 2956 400 3219 
Q 400 3675 750 4004 
Q 1100 4334 1641 4334 
Q 1978 4334 2356 4169 
Q 2531 4091 2603 4091 
Q 2684 4091 2736 4139 
Q 2788 4188 2819 4334 
L 2934 4334 
z
" transform="scale(0.015625)"/>
       <path id="TimesNewRomanPSMT-65" d="M 681 1784 
Q 678 1147 991 784 
Q 1303 422 1725 422 
Q 2006 422 2214 576 
Q 2422 731 2563 1106 
L 2659 1044 
Q 2594 616 2278 264 
Q 1963 -88 1488 -88 
Q 972 -88 605 314 
Q 238 716 238 1394 
Q 238 2128 614 2539 
Q 991 2950 1559 2950 
Q 2041 2950 2350 2633 
Q 2659 2316 2659 1784 
L 681 1784 
z
M 681 1966 
L 2006 1966 
Q 1991 2241 1941 2353 
Q 1863 2528 1708 2628 
Q 1553 2728 1384 2728 
Q 1125 2728 920 2526 
Q 716 2325 681 1966 
z
" transform="scale(0.015625)"/>
       <path id="TimesNewRomanPSMT-72" d="M 1038 2947 
L 1038 2303 
Q 1397 2947 1775 2947 
Q 1947 2947 2059 2842 
Q 2172 2738 2172 2600 
Q 2172 2478 2090 2393 
Q 2009 2309 1897 2309 
Q 1788 2309 1652 2417 
Q 1516 2525 1450 2525 
Q 1394 2525 1328 2463 
Q 1188 2334 1038 2041 
L 1038 669 
Q 1038 431 1097 309 
Q 1138 225 1241 169 
Q 1344 113 1538 113 
L 1538 0 
L 72 0 
L 72 113 
Q 291 113 397 181 
Q 475 231 506 341 
Q 522 394 522 644 
L 522 1753 
Q 522 2253 501 2348 
Q 481 2444 426 2487 
Q 372 2531 291 2531 
Q 194 2531 72 2484 
L 41 2597 
L 906 2947 
L 1038 2947 
z
" transform="scale(0.015625)"/>
       <path id="TimesNewRomanPSMT-76" d="M 53 2863 
L 1400 2863 
L 1400 2747 
L 1313 2747 
Q 1191 2747 1127 2687 
Q 1063 2628 1063 2528 
Q 1063 2419 1128 2269 
L 1794 688 
L 2463 2328 
Q 2534 2503 2534 2594 
Q 2534 2638 2509 2666 
Q 2475 2713 2422 2730 
Q 2369 2747 2206 2747 
L 2206 2863 
L 3141 2863 
L 3141 2747 
Q 2978 2734 2916 2681 
Q 2806 2588 2719 2369 
L 1703 -88 
L 1575 -88 
L 553 2328 
Q 484 2497 421 2570 
Q 359 2644 263 2694 
Q 209 2722 53 2747 
L 53 2863 
z
" transform="scale(0.015625)"/>
       <path id="TimesNewRomanPSMT-69" d="M 928 4444 
Q 1059 4444 1151 4351 
Q 1244 4259 1244 4128 
Q 1244 3997 1151 3903 
Q 1059 3809 928 3809 
Q 797 3809 703 3903 
Q 609 3997 609 4128 
Q 609 4259 701 4351 
Q 794 4444 928 4444 
z
M 1188 2947 
L 1188 647 
Q 1188 378 1227 289 
Q 1266 200 1342 156 
Q 1419 113 1622 113 
L 1622 0 
L 231 0 
L 231 113 
Q 441 113 512 153 
Q 584 194 626 287 
Q 669 381 669 647 
L 669 1750 
Q 669 2216 641 2353 
Q 619 2453 572 2492 
Q 525 2531 444 2531 
Q 356 2531 231 2484 
L 188 2597 
L 1050 2947 
L 1188 2947 
z
" transform="scale(0.015625)"/>
       <path id="TimesNewRomanPSMT-63" d="M 2631 1088 
Q 2516 522 2178 217 
Q 1841 -88 1431 -88 
Q 944 -88 581 321 
Q 219 731 219 1428 
Q 219 2103 620 2525 
Q 1022 2947 1584 2947 
Q 2006 2947 2278 2723 
Q 2550 2500 2550 2259 
Q 2550 2141 2473 2067 
Q 2397 1994 2259 1994 
Q 2075 1994 1981 2113 
Q 1928 2178 1911 2362 
Q 1894 2547 1784 2644 
Q 1675 2738 1481 2738 
Q 1169 2738 978 2506 
Q 725 2200 725 1697 
Q 725 1184 976 792 
Q 1228 400 1656 400 
Q 1963 400 2206 609 
Q 2378 753 2541 1131 
L 2631 1088 
z
" transform="scale(0.015625)"/>
       <path id="TimesNewRomanPSMT-20" transform="scale(0.015625)"/>
       <path id="TimesNewRomanPSMT-54" d="M 3703 4238 
L 3750 3244 
L 3631 3244 
Q 3597 3506 3538 3619 
Q 3441 3800 3280 3886 
Q 3119 3972 2856 3972 
L 2259 3972 
L 2259 734 
Q 2259 344 2344 247 
Q 2463 116 2709 116 
L 2856 116 
L 2856 0 
L 1059 0 
L 1059 116 
L 1209 116 
Q 1478 116 1591 278 
Q 1659 378 1659 734 
L 1659 3972 
L 1150 3972 
Q 853 3972 728 3928 
Q 566 3869 450 3700 
Q 334 3531 313 3244 
L 194 3244 
L 244 4238 
L 3703 4238 
z
" transform="scale(0.015625)"/>
       <path id="TimesNewRomanPSMT-6d" d="M 1050 2338 
Q 1363 2650 1419 2697 
Q 1559 2816 1721 2881 
Q 1884 2947 2044 2947 
Q 2313 2947 2506 2790 
Q 2700 2634 2766 2338 
Q 3088 2713 3309 2830 
Q 3531 2947 3766 2947 
Q 3994 2947 4170 2830 
Q 4347 2713 4450 2447 
Q 4519 2266 4519 1878 
L 4519 647 
Q 4519 378 4559 278 
Q 4591 209 4675 161 
Q 4759 113 4950 113 
L 4950 0 
L 3538 0 
L 3538 113 
L 3597 113 
Q 3781 113 3884 184 
Q 3956 234 3988 344 
Q 4000 397 4000 647 
L 4000 1878 
Q 4000 2228 3916 2372 
Q 3794 2572 3525 2572 
Q 3359 2572 3192 2489 
Q 3025 2406 2788 2181 
L 2781 2147 
L 2788 2013 
L 2788 647 
Q 2788 353 2820 281 
Q 2853 209 2943 161 
Q 3034 113 3253 113 
L 3253 0 
L 1806 0 
L 1806 113 
Q 2044 113 2133 169 
Q 2222 225 2256 338 
Q 2272 391 2272 647 
L 2272 1878 
Q 2272 2228 2169 2381 
Q 2031 2581 1784 2581 
Q 1616 2581 1450 2491 
Q 1191 2353 1050 2181 
L 1050 647 
Q 1050 366 1089 281 
Q 1128 197 1204 155 
Q 1281 113 1516 113 
L 1516 0 
L 100 0 
L 100 113 
Q 297 113 375 155 
Q 453 197 493 289 
Q 534 381 534 647 
L 534 1741 
Q 534 2213 506 2350 
Q 484 2453 437 2492 
Q 391 2531 309 2531 
Q 222 2531 100 2484 
L 53 2597 
L 916 2947 
L 1050 2947 
L 1050 2338 
z
" transform="scale(0.015625)"/>
       <path id="TimesNewRomanPSMT-28" d="M 1988 -1253 
L 1988 -1369 
Q 1516 -1131 1200 -813 
Q 750 -359 506 256 
Q 263 872 263 1534 
Q 263 2503 741 3301 
Q 1219 4100 1988 4444 
L 1988 4313 
Q 1603 4100 1356 3731 
Q 1109 3363 987 2797 
Q 866 2231 866 1616 
Q 866 947 969 400 
Q 1050 -31 1165 -292 
Q 1281 -553 1476 -793 
Q 1672 -1034 1988 -1253 
z
" transform="scale(0.015625)"/>
       <path id="TimesNewRomanPSMT-73" d="M 2050 2947 
L 2050 1972 
L 1947 1972 
Q 1828 2431 1642 2597 
Q 1456 2763 1169 2763 
Q 950 2763 815 2647 
Q 681 2531 681 2391 
Q 681 2216 781 2091 
Q 878 1963 1175 1819 
L 1631 1597 
Q 2266 1288 2266 781 
Q 2266 391 1970 151 
Q 1675 -88 1309 -88 
Q 1047 -88 709 6 
Q 606 38 541 38 
Q 469 38 428 -44 
L 325 -44 
L 325 978 
L 428 978 
Q 516 541 762 319 
Q 1009 97 1316 97 
Q 1531 97 1667 223 
Q 1803 350 1803 528 
Q 1803 744 1651 891 
Q 1500 1038 1047 1263 
Q 594 1488 453 1669 
Q 313 1847 313 2119 
Q 313 2472 555 2709 
Q 797 2947 1181 2947 
Q 1350 2947 1591 2875 
Q 1750 2828 1803 2828 
Q 1853 2828 1881 2850 
Q 1909 2872 1947 2947 
L 2050 2947 
z
" transform="scale(0.015625)"/>
       <path id="TimesNewRomanPSMT-29" d="M 144 4313 
L 144 4444 
Q 619 4209 934 3891 
Q 1381 3434 1625 2820 
Q 1869 2206 1869 1541 
Q 1869 572 1392 -226 
Q 916 -1025 144 -1369 
L 144 -1253 
Q 528 -1038 776 -670 
Q 1025 -303 1145 264 
Q 1266 831 1266 1447 
Q 1266 2113 1163 2663 
Q 1084 3094 967 3353 
Q 850 3613 656 3853 
Q 463 4094 144 4313 
z
" transform="scale(0.015625)"/>
      </defs>
      <use xlink:href="#TimesNewRomanPSMT-53"/>
      <use xlink:href="#TimesNewRomanPSMT-65" x="55.615234"/>
      <use xlink:href="#TimesNewRomanPSMT-72" x="100"/>
      <use xlink:href="#TimesNewRomanPSMT-76" x="133.300781"/>
      <use xlink:href="#TimesNewRomanPSMT-69" x="183.300781"/>
      <use xlink:href="#TimesNewRomanPSMT-63" x="211.083984"/>
      <use xlink:href="#TimesNewRomanPSMT-65" x="255.46875"/>
      <use xlink:href="#TimesNewRomanPSMT-20" x="299.853516"/>
      <use xlink:href="#TimesNewRomanPSMT-54" x="323.103516"/>
      <use xlink:href="#TimesNewRomanPSMT-69" x="380.6875"/>
      <use xlink:href="#TimesNewRomanPSMT-6d" x="408.470703"/>
      <use xlink:href="#TimesNewRomanPSMT-65" x="486.253906"/>
      <use xlink:href="#TimesNewRomanPSMT-20" x="530.638672"/>
      <use xlink:href="#TimesNewRomanPSMT-28" x="555.638672"/>
      <use xlink:href="#TimesNewRomanPSMT-73" x="588.939453"/>
      <use xlink:href="#TimesNewRomanPSMT-29" x="627.855469"/>
     </g>
    </g>
   </g>
   <g id="matplotlib.axis_2">
    <g id="ytick_1">
     <g id="line2d_17">
      <path d="M 55.415938 358.703926 
L 552.522187 358.703926 
" clip-path="url(#p04c780023c)" style="fill: none; stroke: #b0b0b0; stroke-opacity: 0.3; stroke-width: 0.8; stroke-linecap: square"/>
     </g>
     <g id="line2d_18">
      <defs>
       <path id="m1422512c22" d="M 0 0 
L -3.5 0 
" style="stroke: #000000; stroke-width: 0.8"/>
      </defs>
      <g>
       <use xlink:href="#m1422512c22" x="55.415938" y="358.703926" style="stroke: #000000; stroke-width: 0.8"/>
      </g>
     </g>
     <g id="text_10">
      <!-- 9.0 -->
      <g transform="translate(30.915938 363.564551) scale(0.14 -0.14)">
       <defs>
        <path id="TimesNewRomanPSMT-39" d="M 338 -88 
L 338 28 
Q 744 34 1094 217 
Q 1444 400 1770 856 
Q 2097 1313 2225 1859 
Q 1734 1544 1338 1544 
Q 891 1544 572 1889 
Q 253 2234 253 2806 
Q 253 3363 572 3797 
Q 956 4325 1575 4325 
Q 2097 4325 2469 3894 
Q 2925 3359 2925 2575 
Q 2925 1869 2578 1258 
Q 2231 647 1613 244 
Q 1109 -88 516 -88 
L 338 -88 
z
M 2275 2091 
Q 2331 2497 2331 2741 
Q 2331 3044 2228 3395 
Q 2125 3747 1936 3934 
Q 1747 4122 1506 4122 
Q 1228 4122 1018 3872 
Q 809 3622 809 3128 
Q 809 2469 1088 2097 
Q 1291 1828 1588 1828 
Q 1731 1828 1928 1897 
Q 2125 1966 2275 2091 
z
" transform="scale(0.015625)"/>
        <path id="TimesNewRomanPSMT-2e" d="M 800 606 
Q 947 606 1047 504 
Q 1147 403 1147 259 
Q 1147 116 1045 14 
Q 944 -88 800 -88 
Q 656 -88 554 14 
Q 453 116 453 259 
Q 453 406 554 506 
Q 656 606 800 606 
z
" transform="scale(0.015625)"/>
       </defs>
       <use xlink:href="#TimesNewRomanPSMT-39"/>
       <use xlink:href="#TimesNewRomanPSMT-2e" x="50"/>
       <use xlink:href="#TimesNewRomanPSMT-30" x="75"/>
      </g>
     </g>
    </g>
    <g id="ytick_2">
     <g id="line2d_19">
      <path d="M 55.415938 306.327836 
L 552.522187 306.327836 
" clip-path="url(#p04c780023c)" style="fill: none; stroke: #b0b0b0; stroke-opacity: 0.3; stroke-width: 0.8; stroke-linecap: square"/>
     </g>
     <g id="line2d_20">
      <g>
       <use xlink:href="#m1422512c22" x="55.415938" y="306.327836" style="stroke: #000000; stroke-width: 0.8"/>
      </g>
     </g>
     <g id="text_11">
      <!-- 9.5 -->
      <g transform="translate(30.915938 311.188461) scale(0.14 -0.14)">
       <use xlink:href="#TimesNewRomanPSMT-39"/>
       <use xlink:href="#TimesNewRomanPSMT-2e" x="50"/>
       <use xlink:href="#TimesNewRomanPSMT-35" x="75"/>
      </g>
     </g>
    </g>
    <g id="ytick_3">
     <g id="line2d_21">
      <path d="M 55.415938 253.951745 
L 552.522187 253.951745 
" clip-path="url(#p04c780023c)" style="fill: none; stroke: #b0b0b0; stroke-opacity: 0.3; stroke-width: 0.8; stroke-linecap: square"/>
     </g>
     <g id="line2d_22">
      <g>
       <use xlink:href="#m1422512c22" x="55.415938" y="253.951745" style="stroke: #000000; stroke-width: 0.8"/>
      </g>
     </g>
     <g id="text_12">
      <!-- 10.0 -->
      <g transform="translate(23.915938 258.81237) scale(0.14 -0.14)">
       <use xlink:href="#TimesNewRomanPSMT-31"/>
       <use xlink:href="#TimesNewRomanPSMT-30" x="50"/>
       <use xlink:href="#TimesNewRomanPSMT-2e" x="100"/>
       <use xlink:href="#TimesNewRomanPSMT-30" x="125"/>
      </g>
     </g>
    </g>
    <g id="ytick_4">
     <g id="line2d_23">
      <path d="M 55.415938 201.575654 
L 552.522187 201.575654 
" clip-path="url(#p04c780023c)" style="fill: none; stroke: #b0b0b0; stroke-opacity: 0.3; stroke-width: 0.8; stroke-linecap: square"/>
     </g>
     <g id="line2d_24">
      <g>
       <use xlink:href="#m1422512c22" x="55.415938" y="201.575654" style="stroke: #000000; stroke-width: 0.8"/>
      </g>
     </g>
     <g id="text_13">
      <!-- 10.5 -->
      <g transform="translate(23.915938 206.436279) scale(0.14 -0.14)">
       <use xlink:href="#TimesNewRomanPSMT-31"/>
       <use xlink:href="#TimesNewRomanPSMT-30" x="50"/>
       <use xlink:href="#TimesNewRomanPSMT-2e" x="100"/>
       <use xlink:href="#TimesNewRomanPSMT-35" x="125"/>
      </g>
     </g>
    </g>
    <g id="ytick_5">
     <g id="line2d_25">
      <path d="M 55.415938 149.199564 
L 552.522187 149.199564 
" clip-path="url(#p04c780023c)" style="fill: none; stroke: #b0b0b0; stroke-opacity: 0.3; stroke-width: 0.8; stroke-linecap: square"/>
     </g>
     <g id="line2d_26">
      <g>
       <use xlink:href="#m1422512c22" x="55.415938" y="149.199564" style="stroke: #000000; stroke-width: 0.8"/>
      </g>
     </g>
     <g id="text_14">
      <!-- 11.0 -->
      <g transform="translate(24.440938 154.060189) scale(0.14 -0.14)">
       <use xlink:href="#TimesNewRomanPSMT-31"/>
       <use xlink:href="#TimesNewRomanPSMT-31" x="46.25"/>
       <use xlink:href="#TimesNewRomanPSMT-2e" x="96.25"/>
       <use xlink:href="#TimesNewRomanPSMT-30" x="121.25"/>
      </g>
     </g>
    </g>
    <g id="ytick_6">
     <g id="line2d_27">
      <path d="M 55.415938 96.823473 
L 552.522187 96.823473 
" clip-path="url(#p04c780023c)" style="fill: none; stroke: #b0b0b0; stroke-opacity: 0.3; stroke-width: 0.8; stroke-linecap: square"/>
     </g>
     <g id="line2d_28">
      <g>
       <use xlink:href="#m1422512c22" x="55.415938" y="96.823473" style="stroke: #000000; stroke-width: 0.8"/>
      </g>
     </g>
     <g id="text_15">
      <!-- 11.5 -->
      <g transform="translate(24.440938 101.684098) scale(0.14 -0.14)">
       <use xlink:href="#TimesNewRomanPSMT-31"/>
       <use xlink:href="#TimesNewRomanPSMT-31" x="46.25"/>
       <use xlink:href="#TimesNewRomanPSMT-2e" x="96.25"/>
       <use xlink:href="#TimesNewRomanPSMT-35" x="121.25"/>
      </g>
     </g>
    </g>
    <g id="ytick_7">
     <g id="line2d_29">
      <path d="M 55.415938 44.447383 
L 552.522187 44.447383 
" clip-path="url(#p04c780023c)" style="fill: none; stroke: #b0b0b0; stroke-opacity: 0.3; stroke-width: 0.8; stroke-linecap: square"/>
     </g>
     <g id="line2d_30">
      <g>
       <use xlink:href="#m1422512c22" x="55.415938" y="44.447383" style="stroke: #000000; stroke-width: 0.8"/>
      </g>
     </g>
     <g id="text_16">
      <!-- 12.0 -->
      <g transform="translate(23.915938 49.308008) scale(0.14 -0.14)">
       <use xlink:href="#TimesNewRomanPSMT-31"/>
       <use xlink:href="#TimesNewRomanPSMT-32" x="50"/>
       <use xlink:href="#TimesNewRomanPSMT-2e" x="100"/>
       <use xlink:href="#TimesNewRomanPSMT-30" x="125"/>
      </g>
     </g>
    </g>
    <g id="text_17">
     <!-- Sum Rate (bps/Hz) -->
     <g transform="translate(16.92125 243.2175) rotate(-90) scale(0.14 -0.14)">
      <defs>
       <path id="TimesNewRomanPSMT-75" d="M 2709 2863 
L 2709 1128 
Q 2709 631 2732 520 
Q 2756 409 2807 365 
Q 2859 322 2928 322 
Q 3025 322 3147 375 
L 3191 266 
L 2334 -88 
L 2194 -88 
L 2194 519 
Q 1825 119 1631 15 
Q 1438 -88 1222 -88 
Q 981 -88 804 51 
Q 628 191 559 409 
Q 491 628 491 1028 
L 491 2306 
Q 491 2509 447 2587 
Q 403 2666 317 2708 
Q 231 2750 6 2747 
L 6 2863 
L 1009 2863 
L 1009 947 
Q 1009 547 1148 422 
Q 1288 297 1484 297 
Q 1619 297 1789 381 
Q 1959 466 2194 703 
L 2194 2325 
Q 2194 2569 2105 2655 
Q 2016 2741 1734 2747 
L 1734 2863 
L 2709 2863 
z
" transform="scale(0.015625)"/>
       <path id="TimesNewRomanPSMT-52" d="M 4325 0 
L 3194 0 
L 1759 1981 
Q 1600 1975 1500 1975 
Q 1459 1975 1412 1976 
Q 1366 1978 1316 1981 
L 1316 750 
Q 1316 350 1403 253 
Q 1522 116 1759 116 
L 1925 116 
L 1925 0 
L 109 0 
L 109 116 
L 269 116 
Q 538 116 653 291 
Q 719 388 719 750 
L 719 3488 
Q 719 3888 631 3984 
Q 509 4122 269 4122 
L 109 4122 
L 109 4238 
L 1653 4238 
Q 2328 4238 2648 4139 
Q 2969 4041 3192 3777 
Q 3416 3513 3416 3147 
Q 3416 2756 3161 2468 
Q 2906 2181 2372 2063 
L 3247 847 
Q 3547 428 3762 290 
Q 3978 153 4325 116 
L 4325 0 
z
M 1316 2178 
Q 1375 2178 1419 2176 
Q 1463 2175 1491 2175 
Q 2097 2175 2405 2437 
Q 2713 2700 2713 3106 
Q 2713 3503 2464 3751 
Q 2216 4000 1806 4000 
Q 1625 4000 1316 3941 
L 1316 2178 
z
" transform="scale(0.015625)"/>
       <path id="TimesNewRomanPSMT-61" d="M 1822 413 
Q 1381 72 1269 19 
Q 1100 -59 909 -59 
Q 613 -59 420 144 
Q 228 347 228 678 
Q 228 888 322 1041 
Q 450 1253 767 1440 
Q 1084 1628 1822 1897 
L 1822 2009 
Q 1822 2438 1686 2597 
Q 1550 2756 1291 2756 
Q 1094 2756 978 2650 
Q 859 2544 859 2406 
L 866 2225 
Q 866 2081 792 2003 
Q 719 1925 600 1925 
Q 484 1925 411 2006 
Q 338 2088 338 2228 
Q 338 2497 613 2722 
Q 888 2947 1384 2947 
Q 1766 2947 2009 2819 
Q 2194 2722 2281 2516 
Q 2338 2381 2338 1966 
L 2338 994 
Q 2338 584 2353 492 
Q 2369 400 2405 369 
Q 2441 338 2488 338 
Q 2538 338 2575 359 
Q 2641 400 2828 588 
L 2828 413 
Q 2478 -56 2159 -56 
Q 2006 -56 1915 50 
Q 1825 156 1822 413 
z
M 1822 616 
L 1822 1706 
Q 1350 1519 1213 1441 
Q 966 1303 859 1153 
Q 753 1003 753 825 
Q 753 600 887 451 
Q 1022 303 1197 303 
Q 1434 303 1822 616 
z
" transform="scale(0.015625)"/>
       <path id="TimesNewRomanPSMT-74" d="M 1031 3803 
L 1031 2863 
L 1700 2863 
L 1700 2644 
L 1031 2644 
L 1031 788 
Q 1031 509 1111 412 
Q 1191 316 1316 316 
Q 1419 316 1516 380 
Q 1613 444 1666 569 
L 1788 569 
Q 1678 263 1478 108 
Q 1278 -47 1066 -47 
Q 922 -47 784 33 
Q 647 113 581 261 
Q 516 409 516 719 
L 516 2644 
L 63 2644 
L 63 2747 
Q 234 2816 414 2980 
Q 594 3144 734 3369 
Q 806 3488 934 3803 
L 1031 3803 
z
" transform="scale(0.015625)"/>
       <path id="TimesNewRomanPSMT-62" d="M 984 2369 
Q 1400 2947 1881 2947 
Q 2322 2947 2650 2570 
Q 2978 2194 2978 1541 
Q 2978 778 2472 313 
Q 2038 -88 1503 -88 
Q 1253 -88 995 3 
Q 738 94 469 275 
L 469 3241 
Q 469 3728 445 3840 
Q 422 3953 372 3993 
Q 322 4034 247 4034 
Q 159 4034 28 3984 
L -16 4094 
L 844 4444 
L 984 4444 
L 984 2369 
z
M 984 2169 
L 984 456 
Q 1144 300 1314 220 
Q 1484 141 1663 141 
Q 1947 141 2192 453 
Q 2438 766 2438 1363 
Q 2438 1913 2192 2208 
Q 1947 2503 1634 2503 
Q 1469 2503 1303 2419 
Q 1178 2356 984 2169 
z
" transform="scale(0.015625)"/>
       <path id="TimesNewRomanPSMT-70" d="M -6 2578 
L 875 2934 
L 994 2934 
L 994 2266 
Q 1216 2644 1439 2795 
Q 1663 2947 1909 2947 
Q 2341 2947 2628 2609 
Q 2981 2197 2981 1534 
Q 2981 794 2556 309 
Q 2206 -88 1675 -88 
Q 1444 -88 1275 -22 
Q 1150 25 994 166 
L 994 -706 
Q 994 -1000 1030 -1079 
Q 1066 -1159 1155 -1206 
Q 1244 -1253 1478 -1253 
L 1478 -1369 
L -22 -1369 
L -22 -1253 
L 56 -1253 
Q 228 -1256 350 -1188 
Q 409 -1153 442 -1076 
Q 475 -1000 475 -688 
L 475 2019 
Q 475 2297 450 2372 
Q 425 2447 370 2484 
Q 316 2522 222 2522 
Q 147 2522 31 2478 
L -6 2578 
z
M 994 2081 
L 994 1013 
Q 994 666 1022 556 
Q 1066 375 1236 237 
Q 1406 100 1666 100 
Q 1978 100 2172 344 
Q 2425 663 2425 1241 
Q 2425 1897 2138 2250 
Q 1938 2494 1663 2494 
Q 1513 2494 1366 2419 
Q 1253 2363 994 2081 
z
" transform="scale(0.015625)"/>
       <path id="TimesNewRomanPSMT-2f" d="M 1794 4444 
L 259 -88 
L 9 -88 
L 1544 4444 
L 1794 4444 
z
" transform="scale(0.015625)"/>
       <path id="TimesNewRomanPSMT-48" d="M 1316 2272 
L 3284 2272 
L 3284 3484 
Q 3284 3809 3244 3913 
Q 3213 3991 3113 4047 
Q 2978 4122 2828 4122 
L 2678 4122 
L 2678 4238 
L 4491 4238 
L 4491 4122 
L 4341 4122 
Q 4191 4122 4056 4050 
Q 3956 4000 3920 3898 
Q 3884 3797 3884 3484 
L 3884 750 
Q 3884 428 3925 325 
Q 3956 247 4053 191 
Q 4191 116 4341 116 
L 4491 116 
L 4491 0 
L 2678 0 
L 2678 116 
L 2828 116 
Q 3088 116 3206 269 
Q 3284 369 3284 750 
L 3284 2041 
L 1316 2041 
L 1316 750 
Q 1316 428 1356 325 
Q 1388 247 1488 191 
Q 1622 116 1772 116 
L 1925 116 
L 1925 0 
L 109 0 
L 109 116 
L 259 116 
Q 522 116 641 269 
Q 716 369 716 750 
L 716 3484 
Q 716 3809 675 3913 
Q 644 3991 547 4047 
Q 409 4122 259 4122 
L 109 4122 
L 109 4238 
L 1925 4238 
L 1925 4122 
L 1772 4122 
Q 1622 4122 1488 4050 
Q 1391 4000 1353 3898 
Q 1316 3797 1316 3484 
L 1316 2272 
z
" transform="scale(0.015625)"/>
       <path id="TimesNewRomanPSMT-7a" d="M 2688 878 
L 2653 0 
L 128 0 
L 128 113 
L 2028 2644 
L 1091 2644 
Q 788 2644 694 2605 
Q 600 2566 541 2456 
Q 456 2300 444 2069 
L 319 2069 
L 338 2863 
L 2738 2863 
L 2738 2747 
L 819 209 
L 1863 209 
Q 2191 209 2308 264 
Q 2425 319 2497 456 
Q 2547 556 2581 878 
L 2688 878 
z
" transform="scale(0.015625)"/>
      </defs>
      <use xlink:href="#TimesNewRomanPSMT-53"/>
      <use xlink:href="#TimesNewRomanPSMT-75" x="55.615234"/>
      <use xlink:href="#TimesNewRomanPSMT-6d" x="105.615234"/>
      <use xlink:href="#TimesNewRomanPSMT-20" x="183.398438"/>
      <use xlink:href="#TimesNewRomanPSMT-52" x="208.398438"/>
      <use xlink:href="#TimesNewRomanPSMT-61" x="275.097656"/>
      <use xlink:href="#TimesNewRomanPSMT-74" x="319.482422"/>
      <use xlink:href="#TimesNewRomanPSMT-65" x="347.265625"/>
      <use xlink:href="#TimesNewRomanPSMT-20" x="391.650391"/>
      <use xlink:href="#TimesNewRomanPSMT-28" x="416.650391"/>
      <use xlink:href="#TimesNewRomanPSMT-62" x="449.951172"/>
      <use xlink:href="#TimesNewRomanPSMT-70" x="499.951172"/>
      <use xlink:href="#TimesNewRomanPSMT-73" x="549.951172"/>
      <use xlink:href="#TimesNewRomanPSMT-2f" x="588.867188"/>
      <use xlink:href="#TimesNewRomanPSMT-48" x="616.650391"/>
      <use xlink:href="#TimesNewRomanPSMT-7a" x="688.867188"/>
      <use xlink:href="#TimesNewRomanPSMT-29" x="733.251953"/>
     </g>
    </g>
   </g>
   <g id="line2d_31">
    <path d="M 78.011676 287.724547 
L 96.841458 263.232871 
L 115.671241 238.208936 
L 134.501023 211.72894 
L 153.330805 183.947711 
L 172.160587 155.151786 
L 190.990369 125.586415 
L 209.820152 95.451664 
L 228.649934 67.309239 
L 247.479716 47.525008 
L 266.309498 33.840859 
L 285.13928 25.688123 
L 303.969063 23.778011 
L 322.798845 25.038443 
L 341.628627 30.221731 
L 360.458409 40.693165 
L 379.288191 59.081737 
L 398.117973 83.310414 
L 416.947756 113.542479 
L 435.777538 145.896727 
L 454.60732 177.353303 
L 473.437102 206.908789 
L 492.266884 234.448615 
L 511.096667 260.097362 
L 529.926449 284.02335 
" clip-path="url(#p04c780023c)" style="fill: none; stroke: #1d73b6; stroke-width: 2; stroke-linecap: square"/>
    <defs>
     <path id="m51adb586c0" d="M 0 3 
C 0.795609 3 1.55874 2.683901 2.12132 2.12132 
C 2.683901 1.55874 3 0.795609 3 0 
C 3 -0.795609 2.683901 -1.55874 2.12132 -2.12132 
C 1.55874 -2.683901 0.795609 -3 0 -3 
C -0.795609 -3 -1.55874 -2.683901 -2.12132 -2.12132 
C -2.683901 -1.55874 -3 -0.795609 -3 0 
C -3 0.795609 -2.683901 1.55874 -2.12132 2.12132 
C -1.55874 2.683901 -0.795609 3 0 3 
z
" style="stroke: #1d73b6; stroke-width: 2"/>
    </defs>
    <g clip-path="url(#p04c780023c)">
     <use xlink:href="#m51adb586c0" x="78.011676" y="287.724547" style="fill: #1d73b6; stroke: #1d73b6; stroke-width: 2"/>
     <use xlink:href="#m51adb586c0" x="96.841458" y="263.232871" style="fill: #1d73b6; stroke: #1d73b6; stroke-width: 2"/>
     <use xlink:href="#m51adb586c0" x="115.671241" y="238.208936" style="fill: #1d73b6; stroke: #1d73b6; stroke-width: 2"/>
     <use xlink:href="#m51adb586c0" x="134.501023" y="211.72894" style="fill: #1d73b6; stroke: #1d73b6; stroke-width: 2"/>
     <use xlink:href="#m51adb586c0" x="153.330805" y="183.947711" style="fill: #1d73b6; stroke: #1d73b6; stroke-width: 2"/>
     <use xlink:href="#m51adb586c0" x="172.160587" y="155.151786" style="fill: #1d73b6; stroke: #1d73b6; stroke-width: 2"/>
     <use xlink:href="#m51adb586c0" x="190.990369" y="125.586415" style="fill: #1d73b6; stroke: #1d73b6; stroke-width: 2"/>
     <use xlink:href="#m51adb586c0" x="209.820152" y="95.451664" style="fill: #1d73b6; stroke: #1d73b6; stroke-width: 2"/>
     <use xlink:href="#m51adb586c0" x="228.649934" y="67.309239" style="fill: #1d73b6; stroke: #1d73b6; stroke-width: 2"/>
     <use xlink:href="#m51adb586c0" x="247.479716" y="47.525008" style="fill: #1d73b6; stroke: #1d73b6; stroke-width: 2"/>
     <use xlink:href="#m51adb586c0" x="266.309498" y="33.840859" style="fill: #1d73b6; stroke: #1d73b6; stroke-width: 2"/>
     <use xlink:href="#m51adb586c0" x="285.13928" y="25.688123" style="fill: #1d73b6; stroke: #1d73b6; stroke-width: 2"/>
     <use xlink:href="#m51adb586c0" x="303.969063" y="23.778011" style="fill: #1d73b6; stroke: #1d73b6; stroke-width: 2"/>
     <use xlink:href="#m51adb586c0" x="322.798845" y="25.038443" style="fill: #1d73b6; stroke: #1d73b6; stroke-width: 2"/>
     <use xlink:href="#m51adb586c0" x="341.628627" y="30.221731" style="fill: #1d73b6; stroke: #1d73b6; stroke-width: 2"/>
     <use xlink:href="#m51adb586c0" x="360.458409" y="40.693165" style="fill: #1d73b6; stroke: #1d73b6; stroke-width: 2"/>
     <use xlink:href="#m51adb586c0" x="379.288191" y="59.081737" style="fill: #1d73b6; stroke: #1d73b6; stroke-width: 2"/>
     <use xlink:href="#m51adb586c0" x="398.117973" y="83.310414" style="fill: #1d73b6; stroke: #1d73b6; stroke-width: 2"/>
     <use xlink:href="#m51adb586c0" x="416.947756" y="113.542479" style="fill: #1d73b6; stroke: #1d73b6; stroke-width: 2"/>
     <use xlink:href="#m51adb586c0" x="435.777538" y="145.896727" style="fill: #1d73b6; stroke: #1d73b6; stroke-width: 2"/>
     <use xlink:href="#m51adb586c0" x="454.60732" y="177.353303" style="fill: #1d73b6; stroke: #1d73b6; stroke-width: 2"/>
     <use xlink:href="#m51adb586c0" x="473.437102" y="206.908789" style="fill: #1d73b6; stroke: #1d73b6; stroke-width: 2"/>
     <use xlink:href="#m51adb586c0" x="492.266884" y="234.448615" style="fill: #1d73b6; stroke: #1d73b6; stroke-width: 2"/>
     <use xlink:href="#m51adb586c0" x="511.096667" y="260.097362" style="fill: #1d73b6; stroke: #1d73b6; stroke-width: 2"/>
     <use xlink:href="#m51adb586c0" x="529.926449" y="284.02335" style="fill: #1d73b6; stroke: #1d73b6; stroke-width: 2"/>
    </g>
   </g>
   <g id="line2d_32">
    <path d="M 78.011676 355.313072 
L 96.841458 330.591244 
L 115.671241 305.653752 
L 134.501023 279.313686 
L 153.330805 251.752394 
L 172.160587 223.254633 
L 190.990369 193.937698 
L 209.820152 163.67118 
L 228.649934 135.074187 
L 247.479716 115.447235 
L 266.309498 101.564538 
L 285.13928 92.925136 
L 303.969063 90.998321 
L 322.798845 92.28596 
L 341.628627 97.470171 
L 360.458409 107.677365 
L 379.288191 125.894988 
L 398.117973 149.805498 
L 416.947756 180.274916 
L 435.777538 213.087815 
L 454.60732 244.876764 
L 473.437102 274.594499 
L 492.266884 302.187001 
L 511.096667 327.82975 
L 529.926449 351.724337 
" clip-path="url(#p04c780023c)" style="fill: none; stroke-dasharray: 7.4,3.2; stroke-dashoffset: 0; stroke: #24a645; stroke-width: 2"/>
    <defs>
     <path id="m4b15142faa" d="M 0 3 
C 0.795609 3 1.55874 2.683901 2.12132 2.12132 
C 2.683901 1.55874 3 0.795609 3 0 
C 3 -0.795609 2.683901 -1.55874 2.12132 -2.12132 
C 1.55874 -2.683901 0.795609 -3 0 -3 
C -0.795609 -3 -1.55874 -2.683901 -2.12132 -2.12132 
C -2.683901 -1.55874 -3 -0.795609 -3 0 
C -3 0.795609 -2.683901 1.55874 -2.12132 2.12132 
C -1.55874 2.683901 -0.795609 3 0 3 
z
" style="stroke: #24a645; stroke-width: 2"/>
    </defs>
    <g clip-path="url(#p04c780023c)">
     <use xlink:href="#m4b15142faa" x="78.011676" y="355.313072" style="fill: #24a645; fill-opacity: 0; stroke: #24a645; stroke-width: 2"/>
     <use xlink:href="#m4b15142faa" x="96.841458" y="330.591244" style="fill: #24a645; fill-opacity: 0; stroke: #24a645; stroke-width: 2"/>
     <use xlink:href="#m4b15142faa" x="115.671241" y="305.653752" style="fill: #24a645; fill-opacity: 0; stroke: #24a645; stroke-width: 2"/>
     <use xlink:href="#m4b15142faa" x="134.501023" y="279.313686" style="fill: #24a645; fill-opacity: 0; stroke: #24a645; stroke-width: 2"/>
     <use xlink:href="#m4b15142faa" x="153.330805" y="251.752394" style="fill: #24a645; fill-opacity: 0; stroke: #24a645; stroke-width: 2"/>
     <use xlink:href="#m4b15142faa" x="172.160587" y="223.254633" style="fill: #24a645; fill-opacity: 0; stroke: #24a645; stroke-width: 2"/>
     <use xlink:href="#m4b15142faa" x="190.990369" y="193.937698" style="fill: #24a645; fill-opacity: 0; stroke: #24a645; stroke-width: 2"/>
     <use xlink:href="#m4b15142faa" x="209.820152" y="163.67118" style="fill: #24a645; fill-opacity: 0; stroke: #24a645; stroke-width: 2"/>
     <use xlink:href="#m4b15142faa" x="228.649934" y="135.074187" style="fill: #24a645; fill-opacity: 0; stroke: #24a645; stroke-width: 2"/>
     <use xlink:href="#m4b15142faa" x="247.479716" y="115.447235" style="fill: #24a645; fill-opacity: 0; stroke: #24a645; stroke-width: 2"/>
     <use xlink:href="#m4b15142faa" x="266.309498" y="101.564538" style="fill: #24a645; fill-opacity: 0; stroke: #24a645; stroke-width: 2"/>
     <use xlink:href="#m4b15142faa" x="285.13928" y="92.925136" style="fill: #24a645; fill-opacity: 0; stroke: #24a645; stroke-width: 2"/>
     <use xlink:href="#m4b15142faa" x="303.969063" y="90.998321" style="fill: #24a645; fill-opacity: 0; stroke: #24a645; stroke-width: 2"/>
     <use xlink:href="#m4b15142faa" x="322.798845" y="92.28596" style="fill: #24a645; fill-opacity: 0; stroke: #24a645; stroke-width: 2"/>
     <use xlink:href="#m4b15142faa" x="341.628627" y="97.470171" style="fill: #24a645; fill-opacity: 0; stroke: #24a645; stroke-width: 2"/>
     <use xlink:href="#m4b15142faa" x="360.458409" y="107.677365" style="fill: #24a645; fill-opacity: 0; stroke: #24a645; stroke-width: 2"/>
     <use xlink:href="#m4b15142faa" x="379.288191" y="125.894988" style="fill: #24a645; fill-opacity: 0; stroke: #24a645; stroke-width: 2"/>
     <use xlink:href="#m4b15142faa" x="398.117973" y="149.805498" style="fill: #24a645; fill-opacity: 0; stroke: #24a645; stroke-width: 2"/>
     <use xlink:href="#m4b15142faa" x="416.947756" y="180.274916" style="fill: #24a645; fill-opacity: 0; stroke: #24a645; stroke-width: 2"/>
     <use xlink:href="#m4b15142faa" x="435.777538" y="213.087815" style="fill: #24a645; fill-opacity: 0; stroke: #24a645; stroke-width: 2"/>
     <use xlink:href="#m4b15142faa" x="454.60732" y="244.876764" style="fill: #24a645; fill-opacity: 0; stroke: #24a645; stroke-width: 2"/>
     <use xlink:href="#m4b15142faa" x="473.437102" y="274.594499" style="fill: #24a645; fill-opacity: 0; stroke: #24a645; stroke-width: 2"/>
     <use xlink:href="#m4b15142faa" x="492.266884" y="302.187001" style="fill: #24a645; fill-opacity: 0; stroke: #24a645; stroke-width: 2"/>
     <use xlink:href="#m4b15142faa" x="511.096667" y="327.82975" style="fill: #24a645; fill-opacity: 0; stroke: #24a645; stroke-width: 2"/>
     <use xlink:href="#m4b15142faa" x="529.926449" y="351.724337" style="fill: #24a645; fill-opacity: 0; stroke: #24a645; stroke-width: 2"/>
    </g>
   </g>
   <g id="line2d_33">
    <path d="M 78.011676 355.338239 
L 96.841458 331.781595 
L 115.671241 306.566597 
L 134.501023 279.548031 
L 153.330805 250.641016 
L 172.160587 220.005657 
L 190.990369 188.61685 
L 209.820152 159.119955 
L 228.649934 134.173797 
L 247.479716 111.854505 
L 266.309498 98.825211 
L 285.13928 93.758284 
L 303.969063 91.081879 
L 322.798845 92.762129 
L 341.628627 96.545107 
L 360.458409 107.421909 
L 379.288191 129.154688 
L 398.117973 154.955311 
L 416.947756 183.12888 
L 435.777538 213.384111 
L 454.60732 243.803159 
L 473.437102 273.036364 
L 492.266884 300.569046 
L 511.096667 326.315965 
L 529.926449 350.359208 
" clip-path="url(#p04c780023c)" style="fill: none; stroke-dasharray: 7.4,3.2; stroke-dashoffset: 0; stroke: #f27830; stroke-width: 2"/>
    <defs>
     <path id="m4b8e961706" d="M -3 0 
L 3 0 
M 0 3 
L 0 -3 
" style="stroke: #f27830; stroke-width: 2"/>
    </defs>
    <g clip-path="url(#p04c780023c)">
     <use xlink:href="#m4b8e961706" x="78.011676" y="355.338239" style="fill: #f27830; stroke: #f27830; stroke-width: 2"/>
     <use xlink:href="#m4b8e961706" x="96.841458" y="331.781595" style="fill: #f27830; stroke: #f27830; stroke-width: 2"/>
     <use xlink:href="#m4b8e961706" x="115.671241" y="306.566597" style="fill: #f27830; stroke: #f27830; stroke-width: 2"/>
     <use xlink:href="#m4b8e961706" x="134.501023" y="279.548031" style="fill: #f27830; stroke: #f27830; stroke-width: 2"/>
     <use xlink:href="#m4b8e961706" x="153.330805" y="250.641016" style="fill: #f27830; stroke: #f27830; stroke-width: 2"/>
     <use xlink:href="#m4b8e961706" x="172.160587" y="220.005657" style="fill: #f27830; stroke: #f27830; stroke-width: 2"/>
     <use xlink:href="#m4b8e961706" x="190.990369" y="188.61685" style="fill: #f27830; stroke: #f27830; stroke-width: 2"/>
     <use xlink:href="#m4b8e961706" x="209.820152" y="159.119955" style="fill: #f27830; stroke: #f27830; stroke-width: 2"/>
     <use xlink:href="#m4b8e961706" x="228.649934" y="134.173797" style="fill: #f27830; stroke: #f27830; stroke-width: 2"/>
     <use xlink:href="#m4b8e961706" x="247.479716" y="111.854505" style="fill: #f27830; stroke: #f27830; stroke-width: 2"/>
     <use xlink:href="#m4b8e961706" x="266.309498" y="98.825211" style="fill: #f27830; stroke: #f27830; stroke-width: 2"/>
     <use xlink:href="#m4b8e961706" x="285.13928" y="93.758284" style="fill: #f27830; stroke: #f27830; stroke-width: 2"/>
     <use xlink:href="#m4b8e961706" x="303.969063" y="91.081879" style="fill: #f27830; stroke: #f27830; stroke-width: 2"/>
     <use xlink:href="#m4b8e961706" x="322.798845" y="92.762129" style="fill: #f27830; stroke: #f27830; stroke-width: 2"/>
     <use xlink:href="#m4b8e961706" x="341.628627" y="96.545107" style="fill: #f27830; stroke: #f27830; stroke-width: 2"/>
     <use xlink:href="#m4b8e961706" x="360.458409" y="107.421909" style="fill: #f27830; stroke: #f27830; stroke-width: 2"/>
     <use xlink:href="#m4b8e961706" x="379.288191" y="129.154688" style="fill: #f27830; stroke: #f27830; stroke-width: 2"/>
     <use xlink:href="#m4b8e961706" x="398.117973" y="154.955311" style="fill: #f27830; stroke: #f27830; stroke-width: 2"/>
     <use xlink:href="#m4b8e961706" x="416.947756" y="183.12888" style="fill: #f27830; stroke: #f27830; stroke-width: 2"/>
     <use xlink:href="#m4b8e961706" x="435.777538" y="213.384111" style="fill: #f27830; stroke: #f27830; stroke-width: 2"/>
     <use xlink:href="#m4b8e961706" x="454.60732" y="243.803159" style="fill: #f27830; stroke: #f27830; stroke-width: 2"/>
     <use xlink:href="#m4b8e961706" x="473.437102" y="273.036364" style="fill: #f27830; stroke: #f27830; stroke-width: 2"/>
     <use xlink:href="#m4b8e961706" x="492.266884" y="300.569046" style="fill: #f27830; stroke: #f27830; stroke-width: 2"/>
     <use xlink:href="#m4b8e961706" x="511.096667" y="326.315965" style="fill: #f27830; stroke: #f27830; stroke-width: 2"/>
     <use xlink:href="#m4b8e961706" x="529.926449" y="350.359208" style="fill: #f27830; stroke: #f27830; stroke-width: 2"/>
    </g>
   </g>
   <g id="patch_3">
    <path d="M 55.415938 371.91625 
L 55.415938 7.2 
" style="fill: none; stroke: #000000; stroke-width: 0.8; stroke-linejoin: miter; stroke-linecap: square"/>
   </g>
   <g id="patch_4">
    <path d="M 552.522187 371.91625 
L 552.522187 7.2 
" style="fill: none; stroke: #000000; stroke-width: 0.8; stroke-linejoin: miter; stroke-linecap: square"/>
   </g>
   <g id="patch_5">
    <path d="M 55.415938 371.91625 
L 552.522187 371.91625 
" style="fill: none; stroke: #000000; stroke-width: 0.8; stroke-linejoin: miter; stroke-linecap: square"/>
   </g>
   <g id="patch_6">
    <path d="M 55.415938 7.2 
L 552.522187 7.2 
" style="fill: none; stroke: #000000; stroke-width: 0.8; stroke-linejoin: miter; stroke-linecap: square"/>
   </g>
   <g id="legend_1">
    <g id="patch_7">
     <path d="M 172.698281 364.91625 
L 435.239844 364.91625 
Q 438.039844 364.91625 438.039844 362.11625 
L 438.039844 304.132187 
Q 438.039844 301.332187 435.239844 301.332187 
L 172.698281 301.332187 
Q 169.898281 301.332187 169.898281 304.132187 
L 169.898281 362.11625 
Q 169.898281 364.91625 172.698281 364.91625 
z
" style="fill: #ffffff; opacity: 0.8; stroke: #cccccc; stroke-linejoin: miter"/>
    </g>
    <g id="line2d_34">
     <path d="M 175.498281 311.832187 
L 189.498281 311.832187 
L 203.498281 311.832187 
" style="fill: none; stroke: #1d73b6; stroke-width: 2; stroke-linecap: square"/>
     <g>
      <use xlink:href="#m51adb586c0" x="189.498281" y="311.832187" style="fill: #1d73b6; stroke: #1d73b6; stroke-width: 2"/>
     </g>
    </g>
    <g id="text_18">
     <!-- RIS with 6400 elements -->
     <g transform="translate(214.698281 316.732187) scale(0.14 -0.14)">
      <defs>
       <path id="TimesNewRomanPSMT-49" d="M 1975 116 
L 1975 0 
L 159 0 
L 159 116 
L 309 116 
Q 572 116 691 269 
Q 766 369 766 750 
L 766 3488 
Q 766 3809 725 3913 
Q 694 3991 597 4047 
Q 459 4122 309 4122 
L 159 4122 
L 159 4238 
L 1975 4238 
L 1975 4122 
L 1822 4122 
Q 1563 4122 1444 3969 
Q 1366 3869 1366 3488 
L 1366 750 
Q 1366 428 1406 325 
Q 1438 247 1538 191 
Q 1672 116 1822 116 
L 1975 116 
z
" transform="scale(0.015625)"/>
       <path id="TimesNewRomanPSMT-77" d="M 41 2863 
L 1241 2863 
L 1241 2747 
Q 1075 2734 1023 2687 
Q 972 2641 972 2553 
Q 972 2456 1025 2319 
L 1638 672 
L 2253 2013 
L 2091 2434 
Q 2016 2622 1894 2694 
Q 1825 2738 1638 2747 
L 1638 2863 
L 3000 2863 
L 3000 2747 
Q 2775 2738 2681 2666 
Q 2619 2616 2619 2506 
Q 2619 2444 2644 2378 
L 3294 734 
L 3897 2319 
Q 3959 2488 3959 2588 
Q 3959 2647 3898 2694 
Q 3838 2741 3659 2747 
L 3659 2863 
L 4563 2863 
L 4563 2747 
Q 4291 2706 4163 2378 
L 3206 -88 
L 3078 -88 
L 2363 1741 
L 1528 -88 
L 1413 -88 
L 494 2319 
Q 403 2547 315 2626 
Q 228 2706 41 2747 
L 41 2863 
z
" transform="scale(0.015625)"/>
       <path id="TimesNewRomanPSMT-68" d="M 1041 4444 
L 1041 2350 
Q 1388 2731 1591 2839 
Q 1794 2947 1997 2947 
Q 2241 2947 2416 2812 
Q 2591 2678 2675 2391 
Q 2734 2191 2734 1659 
L 2734 647 
Q 2734 375 2778 275 
Q 2809 200 2884 156 
Q 2959 113 3159 113 
L 3159 0 
L 1753 0 
L 1753 113 
L 1819 113 
Q 2019 113 2097 173 
Q 2175 234 2206 353 
Q 2216 403 2216 647 
L 2216 1659 
Q 2216 2128 2167 2275 
Q 2119 2422 2012 2495 
Q 1906 2569 1756 2569 
Q 1603 2569 1437 2487 
Q 1272 2406 1041 2159 
L 1041 647 
Q 1041 353 1073 281 
Q 1106 209 1195 161 
Q 1284 113 1503 113 
L 1503 0 
L 84 0 
L 84 113 
Q 275 113 384 172 
Q 447 203 484 290 
Q 522 378 522 647 
L 522 3238 
Q 522 3728 498 3840 
Q 475 3953 426 3993 
Q 378 4034 297 4034 
Q 231 4034 84 3984 
L 41 4094 
L 897 4444 
L 1041 4444 
z
" transform="scale(0.015625)"/>
       <path id="TimesNewRomanPSMT-36" d="M 2869 4325 
L 2869 4209 
Q 2456 4169 2195 4045 
Q 1934 3922 1679 3669 
Q 1425 3416 1258 3105 
Q 1091 2794 978 2366 
Q 1428 2675 1881 2675 
Q 2316 2675 2634 2325 
Q 2953 1975 2953 1425 
Q 2953 894 2631 456 
Q 2244 -75 1606 -75 
Q 1172 -75 869 213 
Q 275 772 275 1663 
Q 275 2231 503 2743 
Q 731 3256 1154 3653 
Q 1578 4050 1965 4187 
Q 2353 4325 2688 4325 
L 2869 4325 
z
M 925 2138 
Q 869 1716 869 1456 
Q 869 1156 980 804 
Q 1091 453 1309 247 
Q 1469 100 1697 100 
Q 1969 100 2183 356 
Q 2397 613 2397 1088 
Q 2397 1622 2184 2012 
Q 1972 2403 1581 2403 
Q 1463 2403 1327 2353 
Q 1191 2303 925 2138 
z
" transform="scale(0.015625)"/>
       <path id="TimesNewRomanPSMT-34" d="M 2978 1563 
L 2978 1119 
L 2409 1119 
L 2409 0 
L 1894 0 
L 1894 1119 
L 100 1119 
L 100 1519 
L 2066 4325 
L 2409 4325 
L 2409 1563 
L 2978 1563 
z
M 1894 1563 
L 1894 3666 
L 406 1563 
L 1894 1563 
z
" transform="scale(0.015625)"/>
       <path id="TimesNewRomanPSMT-6c" d="M 1184 4444 
L 1184 647 
Q 1184 378 1223 290 
Q 1263 203 1344 158 
Q 1425 113 1647 113 
L 1647 0 
L 244 0 
L 244 113 
Q 441 113 512 153 
Q 584 194 625 287 
Q 666 381 666 647 
L 666 3247 
Q 666 3731 644 3842 
Q 622 3953 573 3993 
Q 525 4034 450 4034 
Q 369 4034 244 3984 
L 191 4094 
L 1044 4444 
L 1184 4444 
z
" transform="scale(0.015625)"/>
       <path id="TimesNewRomanPSMT-6e" d="M 1034 2341 
Q 1538 2947 1994 2947 
Q 2228 2947 2397 2830 
Q 2566 2713 2666 2444 
Q 2734 2256 2734 1869 
L 2734 647 
Q 2734 375 2778 278 
Q 2813 200 2889 156 
Q 2966 113 3172 113 
L 3172 0 
L 1756 0 
L 1756 113 
L 1816 113 
Q 2016 113 2095 173 
Q 2175 234 2206 353 
Q 2219 400 2219 647 
L 2219 1819 
Q 2219 2209 2117 2386 
Q 2016 2563 1775 2563 
Q 1403 2563 1034 2156 
L 1034 647 
Q 1034 356 1069 288 
Q 1113 197 1189 155 
Q 1266 113 1500 113 
L 1500 0 
L 84 0 
L 84 113 
L 147 113 
Q 366 113 442 223 
Q 519 334 519 647 
L 519 1709 
Q 519 2225 495 2337 
Q 472 2450 423 2490 
Q 375 2531 294 2531 
Q 206 2531 84 2484 
L 38 2597 
L 900 2947 
L 1034 2947 
L 1034 2341 
z
" transform="scale(0.015625)"/>
      </defs>
      <use xlink:href="#TimesNewRomanPSMT-52"/>
      <use xlink:href="#TimesNewRomanPSMT-49" x="66.699219"/>
      <use xlink:href="#TimesNewRomanPSMT-53" x="100"/>
      <use xlink:href="#TimesNewRomanPSMT-20" x="155.615234"/>
      <use xlink:href="#TimesNewRomanPSMT-77" x="180.615234"/>
      <use xlink:href="#TimesNewRomanPSMT-69" x="252.832031"/>
      <use xlink:href="#TimesNewRomanPSMT-74" x="280.615234"/>
      <use xlink:href="#TimesNewRomanPSMT-68" x="308.398438"/>
      <use xlink:href="#TimesNewRomanPSMT-20" x="358.398438"/>
      <use xlink:href="#TimesNewRomanPSMT-36" x="383.398438"/>
      <use xlink:href="#TimesNewRomanPSMT-34" x="433.398438"/>
      <use xlink:href="#TimesNewRomanPSMT-30" x="483.398438"/>
      <use xlink:href="#TimesNewRomanPSMT-30" x="533.398438"/>
      <use xlink:href="#TimesNewRomanPSMT-20" x="583.398438"/>
      <use xlink:href="#TimesNewRomanPSMT-65" x="608.398438"/>
      <use xlink:href="#TimesNewRomanPSMT-6c" x="652.783203"/>
      <use xlink:href="#TimesNewRomanPSMT-65" x="680.566406"/>
      <use xlink:href="#TimesNewRomanPSMT-6d" x="724.951172"/>
      <use xlink:href="#TimesNewRomanPSMT-65" x="802.734375"/>
      <use xlink:href="#TimesNewRomanPSMT-6e" x="847.119141"/>
      <use xlink:href="#TimesNewRomanPSMT-74" x="897.119141"/>
      <use xlink:href="#TimesNewRomanPSMT-73" x="924.902344"/>
     </g>
    </g>
    <g id="line2d_35">
     <path d="M 175.498281 331.626875 
L 189.498281 331.626875 
L 203.498281 331.626875 
" style="fill: none; stroke-dasharray: 7.4,3.2; stroke-dashoffset: 0; stroke: #24a645; stroke-width: 2"/>
     <g>
      <use xlink:href="#m4b15142faa" x="189.498281" y="331.626875" style="fill: #24a645; fill-opacity: 0; stroke: #24a645; stroke-width: 2"/>
     </g>
    </g>
    <g id="text_19">
     <!-- RIS with 6400 random-phase elements -->
     <g transform="translate(214.698281 336.526875) scale(0.14 -0.14)">
      <defs>
       <path id="TimesNewRomanPSMT-64" d="M 2222 322 
Q 2013 103 1813 7 
Q 1613 -88 1381 -88 
Q 913 -88 563 304 
Q 213 697 213 1313 
Q 213 1928 600 2439 
Q 988 2950 1597 2950 
Q 1975 2950 2222 2709 
L 2222 3238 
Q 2222 3728 2198 3840 
Q 2175 3953 2125 3993 
Q 2075 4034 2000 4034 
Q 1919 4034 1784 3984 
L 1744 4094 
L 2597 4444 
L 2738 4444 
L 2738 1134 
Q 2738 631 2761 520 
Q 2784 409 2836 365 
Q 2888 322 2956 322 
Q 3041 322 3181 375 
L 3216 266 
L 2366 -88 
L 2222 -88 
L 2222 322 
z
M 2222 541 
L 2222 2016 
Q 2203 2228 2109 2403 
Q 2016 2578 1861 2667 
Q 1706 2756 1559 2756 
Q 1284 2756 1069 2509 
Q 784 2184 784 1559 
Q 784 928 1059 592 
Q 1334 256 1672 256 
Q 1956 256 2222 541 
z
" transform="scale(0.015625)"/>
       <path id="TimesNewRomanPSMT-6f" d="M 1600 2947 
Q 2250 2947 2644 2453 
Q 2978 2031 2978 1484 
Q 2978 1100 2793 706 
Q 2609 313 2286 112 
Q 1963 -88 1566 -88 
Q 919 -88 538 428 
Q 216 863 216 1403 
Q 216 1797 411 2186 
Q 606 2575 925 2761 
Q 1244 2947 1600 2947 
z
M 1503 2744 
Q 1338 2744 1170 2645 
Q 1003 2547 900 2300 
Q 797 2053 797 1666 
Q 797 1041 1045 587 
Q 1294 134 1700 134 
Q 2003 134 2200 384 
Q 2397 634 2397 1244 
Q 2397 2006 2069 2444 
Q 1847 2744 1503 2744 
z
" transform="scale(0.015625)"/>
       <path id="TimesNewRomanPSMT-2d" d="M 259 1672 
L 1875 1672 
L 1875 1200 
L 259 1200 
L 259 1672 
z
" transform="scale(0.015625)"/>
      </defs>
      <use xlink:href="#TimesNewRomanPSMT-52"/>
      <use xlink:href="#TimesNewRomanPSMT-49" x="66.699219"/>
      <use xlink:href="#TimesNewRomanPSMT-53" x="100"/>
      <use xlink:href="#TimesNewRomanPSMT-20" x="155.615234"/>
      <use xlink:href="#TimesNewRomanPSMT-77" x="180.615234"/>
      <use xlink:href="#TimesNewRomanPSMT-69" x="252.832031"/>
      <use xlink:href="#TimesNewRomanPSMT-74" x="280.615234"/>
      <use xlink:href="#TimesNewRomanPSMT-68" x="308.398438"/>
      <use xlink:href="#TimesNewRomanPSMT-20" x="358.398438"/>
      <use xlink:href="#TimesNewRomanPSMT-36" x="383.398438"/>
      <use xlink:href="#TimesNewRomanPSMT-34" x="433.398438"/>
      <use xlink:href="#TimesNewRomanPSMT-30" x="483.398438"/>
      <use xlink:href="#TimesNewRomanPSMT-30" x="533.398438"/>
      <use xlink:href="#TimesNewRomanPSMT-20" x="583.398438"/>
      <use xlink:href="#TimesNewRomanPSMT-72" x="608.398438"/>
      <use xlink:href="#TimesNewRomanPSMT-61" x="641.699219"/>
      <use xlink:href="#TimesNewRomanPSMT-6e" x="686.083984"/>
      <use xlink:href="#TimesNewRomanPSMT-64" x="736.083984"/>
      <use xlink:href="#TimesNewRomanPSMT-6f" x="786.083984"/>
      <use xlink:href="#TimesNewRomanPSMT-6d" x="836.083984"/>
      <use xlink:href="#TimesNewRomanPSMT-2d" x="913.867188"/>
      <use xlink:href="#TimesNewRomanPSMT-70" x="947.167969"/>
      <use xlink:href="#TimesNewRomanPSMT-68" x="997.167969"/>
      <use xlink:href="#TimesNewRomanPSMT-61" x="1047.167969"/>
      <use xlink:href="#TimesNewRomanPSMT-73" x="1091.552734"/>
      <use xlink:href="#TimesNewRomanPSMT-65" x="1130.46875"/>
      <use xlink:href="#TimesNewRomanPSMT-20" x="1174.853516"/>
      <use xlink:href="#TimesNewRomanPSMT-65" x="1199.853516"/>
      <use xlink:href="#TimesNewRomanPSMT-6c" x="1244.238281"/>
      <use xlink:href="#TimesNewRomanPSMT-65" x="1272.021484"/>
      <use xlink:href="#TimesNewRomanPSMT-6d" x="1316.40625"/>
      <use xlink:href="#TimesNewRomanPSMT-65" x="1394.189453"/>
      <use xlink:href="#TimesNewRomanPSMT-6e" x="1438.574219"/>
      <use xlink:href="#TimesNewRomanPSMT-74" x="1488.574219"/>
      <use xlink:href="#TimesNewRomanPSMT-73" x="1516.357422"/>
     </g>
    </g>
    <g id="line2d_36">
     <path d="M 175.498281 351.421562 
L 189.498281 351.421562 
L 203.498281 351.421562 
" style="fill: none; stroke-dasharray: 7.4,3.2; stroke-dashoffset: 0; stroke: #f27830; stroke-width: 2"/>
     <g>
      <use xlink:href="#m4b8e961706" x="189.498281" y="351.421562" style="fill: #f27830; stroke: #f27830; stroke-width: 2"/>
     </g>
    </g>
    <g id="text_20">
     <!-- RIS without elements -->
     <g transform="translate(214.698281 356.321562) scale(0.14 -0.14)">
      <use xlink:href="#TimesNewRomanPSMT-52"/>
      <use xlink:href="#TimesNewRomanPSMT-49" x="66.699219"/>
      <use xlink:href="#TimesNewRomanPSMT-53" x="100"/>
      <use xlink:href="#TimesNewRomanPSMT-20" x="155.615234"/>
      <use xlink:href="#TimesNewRomanPSMT-77" x="180.615234"/>
      <use xlink:href="#TimesNewRomanPSMT-69" x="252.832031"/>
      <use xlink:href="#TimesNewRomanPSMT-74" x="280.615234"/>
      <use xlink:href="#TimesNewRomanPSMT-68" x="308.398438"/>
      <use xlink:href="#TimesNewRomanPSMT-6f" x="358.398438"/>
      <use xlink:href="#TimesNewRomanPSMT-75" x="408.398438"/>
      <use xlink:href="#TimesNewRomanPSMT-74" x="458.398438"/>
      <use xlink:href="#TimesNewRomanPSMT-20" x="486.181641"/>
      <use xlink:href="#TimesNewRomanPSMT-65" x="511.181641"/>
      <use xlink:href="#TimesNewRomanPSMT-6c" x="555.566406"/>
      <use xlink:href="#TimesNewRomanPSMT-65" x="583.349609"/>
      <use xlink:href="#TimesNewRomanPSMT-6d" x="627.734375"/>
      <use xlink:href="#TimesNewRomanPSMT-65" x="705.517578"/>
      <use xlink:href="#TimesNewRomanPSMT-6e" x="749.902344"/>
      <use xlink:href="#TimesNewRomanPSMT-74" x="799.902344"/>
      <use xlink:href="#TimesNewRomanPSMT-73" x="827.685547"/>
     </g>
    </g>
   </g>
  </g>
 </g>
 <defs>
  <clipPath id="p04c780023c">
   <rect x="55.415938" y="7.2" width="497.10625" height="364.71625"/>
  </clipPath>
 </defs>
</svg>
